<?xml version="1.0" encoding="utf-8" standalone="no"?>
<!DOCTYPE svg PUBLIC "-//W3C//DTD SVG 1.1//EN"
  "http://www.w3.org/Graphics/SVG/1.1/DTD/svg11.dtd">
<svg xmlns:xlink="http://www.w3.org/1999/xlink" width="740.116192pt" height="277.056pt" viewBox="0 0 740.116192 277.056" xmlns="http://www.w3.org/2000/svg" version="1.1">
 <metadata>
  <rdf:RDF xmlns:dc="http://purl.org/dc/elements/1.1/" xmlns:cc="http://creativecommons.org/ns#" xmlns:rdf="http://www.w3.org/1999/02/22-rdf-syntax-ns#">
   <cc:Work>
    <dc:type rdf:resource="http://purl.org/dc/dcmitype/StillImage"/>
    <dc:date>2026-07-17T01:29:04.675358</dc:date>
    <dc:format>image/svg+xml</dc:format>
    <dc:creator>
     <cc:Agent>
      <dc:title>Matplotlib v3.11.0, https://matplotlib.org/</dc:title>
     </cc:Agent>
    </dc:creator>
   </cc:Work>
  </rdf:RDF>
 </metadata>
 <defs>
  <style type="text/css">*{stroke-linejoin: round; stroke-linecap: butt}</style>
 </defs>
 <g id="figure_1">
  <g id="patch_1">
   <path d="M 0 277.056
L 740.116192 277.056
L 740.116192 0
L 0 0
z
" style="fill: #ffffff"/>
  </g>
  <g id="axes_1">
   <g id="patch_2">
    <path d="M 62.28 226.08
L 250.076571 226.08
L 250.076571 78.336
L 62.28 78.336
z
" style="fill: #ffffff"/>
   </g>
   <g id="matplotlib.axis_1">
    <g id="xtick_1">
     <g id="line2d_1">
      <path d="M 69.624227 226.08
L 69.624227 78.336
" clip-path="url(#p0a7096b002)" style="fill: none; stroke: #d7d7d7; stroke-width: 0.6; stroke-linecap: square"/>
     </g>
     <g id="line2d_2">
      <defs>
       <path id="m3f4a381df7" d="M 0 0
L 0 3.5
" style="stroke: #000000; stroke-width: 0.8"/>
      </defs>
      <g>
       <use xlink:href="#m3f4a381df7" x="69.624227" y="226.08" style="stroke: #000000; stroke-width: 0.8"/>
      </g>
     </g>
     <g id="text_1">
      <!-- 0.6 -->
      <g transform="translate(61.672665 240.677656) scale(0.1 -0.1)">
       <defs>
        <path id="DejaVuSerif-13" d="M 2034 219
Q 2513 219 2750 744
Q 2988 1269 2988 2328
Q 2988 3391 2750 3916
Q 2513 4441 2034 4441
Q 1556 4441 1318 3916
Q 1081 3391 1081 2328
Q 1081 1269 1318 744
Q 1556 219 2034 219
z
M 2034 -91
Q 1275 -91 848 546
Q 422 1184 422 2328
Q 422 3475 848 4112
Q 1275 4750 2034 4750
Q 2797 4750 3222 4112
Q 3647 3475 3647 2328
Q 3647 1184 3222 546
Q 2797 -91 2034 -91
z
" transform="scale(0.015625)"/>
        <path id="DejaVuSerif-11" d="M 603 325
Q 603 500 722 622
Q 841 744 1019 744
Q 1191 744 1312 622
Q 1434 500 1434 325
Q 1434 153 1312 31
Q 1191 -91 1019 -91
Q 841 -91 722 29
Q 603 150 603 325
z
" transform="scale(0.015625)"/>
        <path id="DejaVuSerif-19" d="M 2094 219
Q 2534 219 2771 542
Q 3009 866 3009 1472
Q 3009 2078 2771 2401
Q 2534 2725 2094 2725
Q 1647 2725 1412 2412
Q 1178 2100 1178 1509
Q 1178 888 1415 553
Q 1653 219 2094 219
z
M 1075 2569
Q 1288 2803 1556 2918
Q 1825 3034 2163 3034
Q 2859 3034 3264 2615
Q 3669 2197 3669 1472
Q 3669 763 3233 336
Q 2797 -91 2069 -91
Q 1278 -91 853 498
Q 428 1088 428 2181
Q 428 3406 931 4078
Q 1434 4750 2350 4750
Q 2597 4750 2869 4703
Q 3141 4656 3425 4563
L 3425 3794
L 3072 3794
Q 3034 4109 2831 4275
Q 2628 4441 2284 4441
Q 1678 4441 1381 3981
Q 1084 3522 1075 2569
z
" transform="scale(0.015625)"/>
       </defs>
       <use xlink:href="#DejaVuSerif-13"/>
       <use xlink:href="#DejaVuSerif-11" transform="translate(63.625 0)"/>
       <use xlink:href="#DejaVuSerif-19" transform="translate(95.40625 0)"/>
      </g>
     </g>
    </g>
    <g id="xtick_2">
     <g id="line2d_3">
      <path d="M 123.805171 226.08
L 123.805171 78.336
" clip-path="url(#p0a7096b002)" style="fill: none; stroke: #d7d7d7; stroke-width: 0.6; stroke-linecap: square"/>
     </g>
     <g id="line2d_4">
      <g>
       <use xlink:href="#m3f4a381df7" x="123.805171" y="226.08" style="stroke: #000000; stroke-width: 0.8"/>
      </g>
     </g>
     <g id="text_2">
      <!-- 0.8 -->
      <g transform="translate(115.853609 240.677656) scale(0.1 -0.1)">
       <defs>
        <path id="DejaVuSerif-1b" d="M 2981 1275
Q 2981 1775 2732 2051
Q 2484 2328 2034 2328
Q 1584 2328 1336 2051
Q 1088 1775 1088 1275
Q 1088 772 1336 495
Q 1584 219 2034 219
Q 2484 219 2732 495
Q 2981 772 2981 1275
z
M 2853 3541
Q 2853 3966 2637 4203
Q 2422 4441 2034 4441
Q 1650 4441 1433 4203
Q 1216 3966 1216 3541
Q 1216 3113 1433 2875
Q 1650 2638 2034 2638
Q 2422 2638 2637 2875
Q 2853 3113 2853 3541
z
M 2516 2484
Q 3047 2413 3344 2092
Q 3641 1772 3641 1275
Q 3641 619 3225 264
Q 2809 -91 2034 -91
Q 1263 -91 845 264
Q 428 619 428 1275
Q 428 1772 725 2092
Q 1022 2413 1556 2484
Q 1084 2569 832 2842
Q 581 3116 581 3541
Q 581 4103 968 4426
Q 1356 4750 2034 4750
Q 2713 4750 3100 4426
Q 3488 4103 3488 3541
Q 3488 3116 3236 2842
Q 2984 2569 2516 2484
z
" transform="scale(0.015625)"/>
       </defs>
       <use xlink:href="#DejaVuSerif-13"/>
       <use xlink:href="#DejaVuSerif-11" transform="translate(63.625 0)"/>
       <use xlink:href="#DejaVuSerif-1b" transform="translate(95.40625 0)"/>
      </g>
     </g>
    </g>
    <g id="xtick_3">
     <g id="line2d_5">
      <path d="M 177.986116 226.08
L 177.986116 78.336
" clip-path="url(#p0a7096b002)" style="fill: none; stroke: #d7d7d7; stroke-width: 0.6; stroke-linecap: square"/>
     </g>
     <g id="line2d_6">
      <g>
       <use xlink:href="#m3f4a381df7" x="177.986116" y="226.08" style="stroke: #000000; stroke-width: 0.8"/>
      </g>
     </g>
     <g id="text_3">
      <!-- 1.0 -->
      <g transform="translate(170.034553 240.677656) scale(0.1 -0.1)">
       <defs>
        <path id="DejaVuSerif-14" d="M 909 0
L 909 331
L 1722 331
L 1722 4213
L 781 3603
L 781 4013
L 1919 4750
L 2350 4750
L 2350 331
L 3163 331
L 3163 0
L 909 0
z
" transform="scale(0.015625)"/>
       </defs>
       <use xlink:href="#DejaVuSerif-14"/>
       <use xlink:href="#DejaVuSerif-11" transform="translate(63.625 0)"/>
       <use xlink:href="#DejaVuSerif-13" transform="translate(95.40625 0)"/>
      </g>
     </g>
    </g>
    <g id="xtick_4">
     <g id="line2d_7">
      <path d="M 232.16706 226.08
L 232.16706 78.336
" clip-path="url(#p0a7096b002)" style="fill: none; stroke: #d7d7d7; stroke-width: 0.6; stroke-linecap: square"/>
     </g>
     <g id="line2d_8">
      <g>
       <use xlink:href="#m3f4a381df7" x="232.16706" y="226.08" style="stroke: #000000; stroke-width: 0.8"/>
      </g>
     </g>
     <g id="text_4">
      <!-- 1.2 -->
      <g transform="translate(224.215498 240.677656) scale(0.1 -0.1)">
       <defs>
        <path id="DejaVuSerif-15" d="M 819 3553
L 469 3553
L 469 4384
Q 803 4563 1142 4656
Q 1481 4750 1806 4750
Q 2534 4750 2956 4397
Q 3378 4044 3378 3438
Q 3378 2753 2422 1800
Q 2347 1728 2309 1691
L 1131 513
L 3078 513
L 3078 1088
L 3444 1088
L 3444 0
L 434 0
L 434 341
L 1850 1753
Q 2319 2222 2519 2614
Q 2719 3006 2719 3438
Q 2719 3909 2473 4175
Q 2228 4441 1797 4441
Q 1350 4441 1106 4219
Q 863 3997 819 3553
z
" transform="scale(0.015625)"/>
       </defs>
       <use xlink:href="#DejaVuSerif-14"/>
       <use xlink:href="#DejaVuSerif-11" transform="translate(63.625 0)"/>
       <use xlink:href="#DejaVuSerif-15" transform="translate(95.40625 0)"/>
      </g>
     </g>
    </g>
   </g>
   <g id="matplotlib.axis_2">
    <g id="ytick_1">
     <g id="line2d_9">
      <path d="M 62.28 208.076839
L 250.076571 208.076839
" clip-path="url(#p0a7096b002)" style="fill: none; stroke: #d7d7d7; stroke-width: 0.6; stroke-linecap: square"/>
     </g>
     <g id="line2d_10">
      <defs>
       <path id="m85f5fc0a6d" d="M 0 0
L -3.5 0
" style="stroke: #000000; stroke-width: 0.8"/>
      </defs>
      <g>
       <use xlink:href="#m85f5fc0a6d" x="62.28" y="208.076839" style="stroke: #000000; stroke-width: 0.8"/>
      </g>
     </g>
     <g id="text_5">
      <!-- 795 -->
      <g transform="translate(36.1925 211.875667) scale(0.1 -0.1)">
       <defs>
        <path id="DejaVuSerif-1a" d="M 3609 4347
L 1784 0
L 1319 0
L 3059 4153
L 903 4153
L 903 3578
L 538 3578
L 538 4666
L 3609 4666
L 3609 4347
z
" transform="scale(0.015625)"/>
        <path id="DejaVuSerif-1c" d="M 2994 2091
Q 2784 1856 2512 1740
Q 2241 1625 1900 1625
Q 1206 1625 804 2044
Q 403 2463 403 3188
Q 403 3897 839 4323
Q 1275 4750 2003 4750
Q 2794 4750 3217 4161
Q 3641 3572 3641 2478
Q 3641 1253 3137 581
Q 2634 -91 1722 -91
Q 1475 -91 1203 -44
Q 931 3 647 97
L 647 872
L 997 872
Q 1038 556 1241 387
Q 1444 219 1784 219
Q 2391 219 2687 676
Q 2984 1134 2994 2091
z
M 1978 4441
Q 1534 4441 1298 4117
Q 1063 3794 1063 3188
Q 1063 2581 1298 2256
Q 1534 1931 1978 1931
Q 2422 1931 2658 2245
Q 2894 2559 2894 3150
Q 2894 3772 2656 4106
Q 2419 4441 1978 4441
z
" transform="scale(0.015625)"/>
        <path id="DejaVuSerif-18" d="M 3219 4666
L 3219 4153
L 1081 4153
L 1081 2816
Q 1244 2928 1461 2984
Q 1678 3041 1947 3041
Q 2703 3041 3140 2622
Q 3578 2203 3578 1478
Q 3578 738 3136 323
Q 2694 -91 1894 -91
Q 1572 -91 1234 -12
Q 897 66 544 225
L 544 1131
L 897 1131
Q 925 688 1179 453
Q 1434 219 1894 219
Q 2388 219 2653 544
Q 2919 869 2919 1478
Q 2919 2084 2655 2407
Q 2391 2731 1894 2731
Q 1613 2731 1398 2631
Q 1184 2531 1019 2322
L 750 2322
L 750 4666
L 3219 4666
z
" transform="scale(0.015625)"/>
       </defs>
       <use xlink:href="#DejaVuSerif-1a"/>
       <use xlink:href="#DejaVuSerif-1c" transform="translate(63.625 0)"/>
       <use xlink:href="#DejaVuSerif-18" transform="translate(127.25 0)"/>
      </g>
     </g>
    </g>
    <g id="ytick_2">
     <g id="line2d_11">
      <path d="M 62.28 186.666257
L 250.076571 186.666257
" clip-path="url(#p0a7096b002)" style="fill: none; stroke: #d7d7d7; stroke-width: 0.6; stroke-linecap: square"/>
     </g>
     <g id="line2d_12">
      <g>
       <use xlink:href="#m85f5fc0a6d" x="62.28" y="186.666257" style="stroke: #000000; stroke-width: 0.8"/>
      </g>
     </g>
     <g id="text_6">
      <!-- 800 -->
      <g transform="translate(36.1925 190.465085) scale(0.1 -0.1)">
       <use xlink:href="#DejaVuSerif-1b"/>
       <use xlink:href="#DejaVuSerif-13" transform="translate(63.625 0)"/>
       <use xlink:href="#DejaVuSerif-13" transform="translate(127.25 0)"/>
      </g>
     </g>
    </g>
    <g id="ytick_3">
     <g id="line2d_13">
      <path d="M 62.28 165.255676
L 250.076571 165.255676
" clip-path="url(#p0a7096b002)" style="fill: none; stroke: #d7d7d7; stroke-width: 0.6; stroke-linecap: square"/>
     </g>
     <g id="line2d_14">
      <g>
       <use xlink:href="#m85f5fc0a6d" x="62.28" y="165.255676" style="stroke: #000000; stroke-width: 0.8"/>
      </g>
     </g>
     <g id="text_7">
      <!-- 805 -->
      <g transform="translate(36.1925 169.054504) scale(0.1 -0.1)">
       <use xlink:href="#DejaVuSerif-1b"/>
       <use xlink:href="#DejaVuSerif-13" transform="translate(63.625 0)"/>
       <use xlink:href="#DejaVuSerif-18" transform="translate(127.25 0)"/>
      </g>
     </g>
    </g>
    <g id="ytick_4">
     <g id="line2d_15">
      <path d="M 62.28 143.845094
L 250.076571 143.845094
" clip-path="url(#p0a7096b002)" style="fill: none; stroke: #d7d7d7; stroke-width: 0.6; stroke-linecap: square"/>
     </g>
     <g id="line2d_16">
      <g>
       <use xlink:href="#m85f5fc0a6d" x="62.28" y="143.845094" style="stroke: #000000; stroke-width: 0.8"/>
      </g>
     </g>
     <g id="text_8">
      <!-- 810 -->
      <g transform="translate(36.1925 147.643922) scale(0.1 -0.1)">
       <use xlink:href="#DejaVuSerif-1b"/>
       <use xlink:href="#DejaVuSerif-14" transform="translate(63.625 0)"/>
       <use xlink:href="#DejaVuSerif-13" transform="translate(127.25 0)"/>
      </g>
     </g>
    </g>
    <g id="ytick_5">
     <g id="line2d_17">
      <path d="M 62.28 122.434512
L 250.076571 122.434512
" clip-path="url(#p0a7096b002)" style="fill: none; stroke: #d7d7d7; stroke-width: 0.6; stroke-linecap: square"/>
     </g>
     <g id="line2d_18">
      <g>
       <use xlink:href="#m85f5fc0a6d" x="62.28" y="122.434512" style="stroke: #000000; stroke-width: 0.8"/>
      </g>
     </g>
     <g id="text_9">
      <!-- 815 -->
      <g transform="translate(36.1925 126.23334) scale(0.1 -0.1)">
       <use xlink:href="#DejaVuSerif-1b"/>
       <use xlink:href="#DejaVuSerif-14" transform="translate(63.625 0)"/>
       <use xlink:href="#DejaVuSerif-18" transform="translate(127.25 0)"/>
      </g>
     </g>
    </g>
    <g id="ytick_6">
     <g id="line2d_19">
      <path d="M 62.28 101.02393
L 250.076571 101.02393
" clip-path="url(#p0a7096b002)" style="fill: none; stroke: #d7d7d7; stroke-width: 0.6; stroke-linecap: square"/>
     </g>
     <g id="line2d_20">
      <g>
       <use xlink:href="#m85f5fc0a6d" x="62.28" y="101.02393" style="stroke: #000000; stroke-width: 0.8"/>
      </g>
     </g>
     <g id="text_10">
      <!-- 820 -->
      <g transform="translate(36.1925 104.822758) scale(0.1 -0.1)">
       <use xlink:href="#DejaVuSerif-1b"/>
       <use xlink:href="#DejaVuSerif-15" transform="translate(63.625 0)"/>
       <use xlink:href="#DejaVuSerif-13" transform="translate(127.25 0)"/>
      </g>
     </g>
    </g>
    <g id="ytick_7">
     <g id="line2d_21">
      <path d="M 62.28 79.613349
L 250.076571 79.613349
" clip-path="url(#p0a7096b002)" style="fill: none; stroke: #d7d7d7; stroke-width: 0.6; stroke-linecap: square"/>
     </g>
     <g id="line2d_22">
      <g>
       <use xlink:href="#m85f5fc0a6d" x="62.28" y="79.613349" style="stroke: #000000; stroke-width: 0.8"/>
      </g>
     </g>
     <g id="text_11">
      <!-- 825 -->
      <g transform="translate(36.1925 83.412177) scale(0.1 -0.1)">
       <use xlink:href="#DejaVuSerif-1b"/>
       <use xlink:href="#DejaVuSerif-15" transform="translate(63.625 0)"/>
       <use xlink:href="#DejaVuSerif-18" transform="translate(127.25 0)"/>
      </g>
     </g>
    </g>
   </g>
   <g id="line2d_23">
    <path d="M 70.816208 219.364364
L 241.540364 162.384576
" clip-path="url(#p0a7096b002)" style="fill: none; stroke: #9c2f1f; stroke-width: 1.8; stroke-linecap: square"/>
    <defs>
     <path id="m7852e077d0" d="M 0 1.5
C 0.397805 1.5 0.77937 1.341951 1.06066 1.06066
C 1.341951 0.77937 1.5 0.397805 1.5 0
C 1.5 -0.397805 1.341951 -0.77937 1.06066 -1.06066
C 0.77937 -1.341951 0.397805 -1.5 0 -1.5
C -0.397805 -1.5 -0.77937 -1.341951 -1.06066 -1.06066
C -1.341951 -0.77937 -1.5 -0.397805 -1.5 0
C -1.5 0.397805 -1.341951 0.77937 -1.06066 1.06066
C -0.77937 1.341951 -0.397805 1.5 0 1.5
z
" style="stroke: #9c2f1f"/>
    </defs>
    <g clip-path="url(#p0a7096b002)">
     <use xlink:href="#m7852e077d0" x="70.816208" y="219.364364" style="fill: #9c2f1f; stroke: #9c2f1f"/>
     <use xlink:href="#m7852e077d0" x="241.540364" y="162.384576" style="fill: #9c2f1f; stroke: #9c2f1f"/>
    </g>
   </g>
   <g id="patch_3">
    <path d="M 62.28 226.08
L 62.28 78.336
" style="fill: none; stroke: #000000; stroke-width: 0.8; stroke-linejoin: miter; stroke-linecap: square"/>
   </g>
   <g id="patch_4">
    <path d="M 62.28 226.08
L 250.076571 226.08
" style="fill: none; stroke: #000000; stroke-width: 0.8; stroke-linejoin: miter; stroke-linecap: square"/>
   </g>
   <g id="PathCollection_1">
    <defs>
     <path id="mf1016eb835" d="M 0 3.082207
C 0.817411 3.082207 1.601453 2.757446 2.179449 2.179449
C 2.757446 1.601453 3.082207 0.817411 3.082207 0
C 3.082207 -0.817411 2.757446 -1.601453 2.179449 -2.179449
C 1.601453 -2.757446 0.817411 -3.082207 0 -3.082207
C -0.817411 -3.082207 -1.601453 -2.757446 -2.179449 -2.179449
C -2.757446 -1.601453 -3.082207 -0.817411 -3.082207 0
C -3.082207 0.817411 -2.757446 1.601453 -2.179449 2.179449
C -1.601453 2.757446 -0.817411 3.082207 0 3.082207
z
" style="stroke: #171717"/>
    </defs>
    <g clip-path="url(#p0a7096b002)">
     <use xlink:href="#mf1016eb835" x="70.816208" y="163.028975" style="fill: #ffffff; stroke: #171717"/>
     <use xlink:href="#mf1016eb835" x="241.540364" y="85.051636" style="fill: #ffffff; stroke: #171717"/>
    </g>
   </g>
   <g id="text_12">
    <!-- LiCl -->
    <g transform="translate(142.625786 72.336) scale(0.12 -0.12)">
     <defs>
      <path id="DejaVuSerif-Bold-2f" d="M 300 0
L 300 378
L 897 378
L 897 4288
L 300 4288
L 300 4666
L 2700 4666
L 2700 4288
L 2100 4288
L 2100 428
L 3938 428
L 3938 1166
L 4359 1166
L 4359 0
L 300 0
z
" transform="scale(0.015625)"/>
      <path id="DejaVuSerif-Bold-4c" d="M 588 4263
Q 588 4516 763 4689
Q 938 4863 1191 4863
Q 1438 4863 1611 4689
Q 1784 4516 1784 4263
Q 1784 4016 1611 3842
Q 1438 3669 1191 3669
Q 938 3669 763 3841
Q 588 4013 588 4263
z
M 1797 378
L 2272 378
L 2272 0
L 219 0
L 219 378
L 691 378
L 691 2944
L 219 2944
L 219 3322
L 1797 3322
L 1797 378
z
" transform="scale(0.015625)"/>
      <path id="DejaVuSerif-Bold-26" d="M 4769 1331
Q 4584 609 4106 259
Q 3628 -91 2822 -91
Q 1641 -91 955 561
Q 269 1213 269 2328
Q 269 3447 955 4098
Q 1641 4750 2822 4750
Q 3238 4750 3688 4650
Q 4138 4550 4641 4347
L 4641 3200
L 4244 3200
Q 4122 3788 3800 4080
Q 3478 4372 2950 4372
Q 2269 4372 1937 3870
Q 1606 3369 1606 2328
Q 1606 1288 1937 788
Q 2269 288 2956 288
Q 3422 288 3717 547
Q 4013 806 4147 1331
L 4769 1331
z
" transform="scale(0.015625)"/>
      <path id="DejaVuSerif-Bold-4f" d="M 1797 378
L 2272 378
L 2272 0
L 219 0
L 219 378
L 691 378
L 691 4488
L 219 4488
L 219 4863
L 1797 4863
L 1797 378
z
" transform="scale(0.015625)"/>
     </defs>
     <use xlink:href="#DejaVuSerif-Bold-2f"/>
     <use xlink:href="#DejaVuSerif-Bold-4c" transform="translate(70.3125 0)"/>
     <use xlink:href="#DejaVuSerif-Bold-26" transform="translate(108.296875 0)"/>
     <use xlink:href="#DejaVuSerif-Bold-4f" transform="translate(187.890625 0)"/>
    </g>
   </g>
  </g>
  <g id="axes_2">
   <g id="patch_5">
    <path d="M 297.025714 226.08
L 484.822286 226.08
L 484.822286 78.336
L 297.025714 78.336
z
" style="fill: #ffffff"/>
   </g>
   <g id="matplotlib.axis_3">
    <g id="xtick_5">
     <g id="line2d_24">
      <path d="M 308.69498 226.08
L 308.69498 78.336
" clip-path="url(#p8d20a58346)" style="fill: none; stroke: #d7d7d7; stroke-width: 0.6; stroke-linecap: square"/>
     </g>
     <g id="line2d_25">
      <g>
       <use xlink:href="#m3f4a381df7" x="308.69498" y="226.08" style="stroke: #000000; stroke-width: 0.8"/>
      </g>
     </g>
     <g id="text_13">
      <!-- 0.3 -->
      <g transform="translate(300.743417 240.677656) scale(0.1 -0.1)">
       <defs>
        <path id="DejaVuSerif-16" d="M 622 4469
Q 988 4606 1323 4678
Q 1659 4750 1953 4750
Q 2638 4750 3022 4454
Q 3406 4159 3406 3634
Q 3406 3213 3140 2930
Q 2875 2647 2388 2547
Q 2963 2466 3280 2130
Q 3597 1794 3597 1259
Q 3597 606 3158 257
Q 2719 -91 1894 -91
Q 1528 -91 1179 -12
Q 831 66 488 225
L 488 1131
L 838 1131
Q 869 681 1141 450
Q 1413 219 1906 219
Q 2384 219 2661 495
Q 2938 772 2938 1253
Q 2938 1803 2653 2086
Q 2369 2369 1819 2369
L 1522 2369
L 1522 2688
L 1678 2688
Q 2225 2688 2498 2914
Q 2772 3141 2772 3597
Q 2772 4006 2547 4223
Q 2322 4441 1900 4441
Q 1478 4441 1245 4241
Q 1013 4041 972 3647
L 622 3647
L 622 4469
z
" transform="scale(0.015625)"/>
       </defs>
       <use xlink:href="#DejaVuSerif-13"/>
       <use xlink:href="#DejaVuSerif-11" transform="translate(63.625 0)"/>
       <use xlink:href="#DejaVuSerif-16" transform="translate(95.40625 0)"/>
      </g>
     </g>
    </g>
    <g id="xtick_6">
     <g id="line2d_26">
      <path d="M 363.660902 226.08
L 363.660902 78.336
" clip-path="url(#p8d20a58346)" style="fill: none; stroke: #d7d7d7; stroke-width: 0.6; stroke-linecap: square"/>
     </g>
     <g id="line2d_27">
      <g>
       <use xlink:href="#m3f4a381df7" x="363.660902" y="226.08" style="stroke: #000000; stroke-width: 0.8"/>
      </g>
     </g>
     <g id="text_14">
      <!-- 0.4 -->
      <g transform="translate(355.70934 240.677656) scale(0.1 -0.1)">
       <defs>
        <path id="DejaVuSerif-17" d="M 2234 1581
L 2234 4063
L 641 1581
L 2234 1581
z
M 3609 0
L 1484 0
L 1484 331
L 2234 331
L 2234 1247
L 197 1247
L 197 1588
L 2241 4750
L 2859 4750
L 2859 1581
L 3750 1581
L 3750 1247
L 2859 1247
L 2859 331
L 3609 331
L 3609 0
z
" transform="scale(0.015625)"/>
       </defs>
       <use xlink:href="#DejaVuSerif-13"/>
       <use xlink:href="#DejaVuSerif-11" transform="translate(63.625 0)"/>
       <use xlink:href="#DejaVuSerif-17" transform="translate(95.40625 0)"/>
      </g>
     </g>
    </g>
    <g id="xtick_7">
     <g id="line2d_28">
      <path d="M 418.626825 226.08
L 418.626825 78.336
" clip-path="url(#p8d20a58346)" style="fill: none; stroke: #d7d7d7; stroke-width: 0.6; stroke-linecap: square"/>
     </g>
     <g id="line2d_29">
      <g>
       <use xlink:href="#m3f4a381df7" x="418.626825" y="226.08" style="stroke: #000000; stroke-width: 0.8"/>
      </g>
     </g>
     <g id="text_15">
      <!-- 0.5 -->
      <g transform="translate(410.675263 240.677656) scale(0.1 -0.1)">
       <use xlink:href="#DejaVuSerif-13"/>
       <use xlink:href="#DejaVuSerif-11" transform="translate(63.625 0)"/>
       <use xlink:href="#DejaVuSerif-18" transform="translate(95.40625 0)"/>
      </g>
     </g>
    </g>
    <g id="xtick_8">
     <g id="line2d_30">
      <path d="M 473.592748 226.08
L 473.592748 78.336
" clip-path="url(#p8d20a58346)" style="fill: none; stroke: #d7d7d7; stroke-width: 0.6; stroke-linecap: square"/>
     </g>
     <g id="line2d_31">
      <g>
       <use xlink:href="#m3f4a381df7" x="473.592748" y="226.08" style="stroke: #000000; stroke-width: 0.8"/>
      </g>
     </g>
     <g id="text_16">
      <!-- 0.6 -->
      <g transform="translate(465.641185 240.677656) scale(0.1 -0.1)">
       <use xlink:href="#DejaVuSerif-13"/>
       <use xlink:href="#DejaVuSerif-11" transform="translate(63.625 0)"/>
       <use xlink:href="#DejaVuSerif-19" transform="translate(95.40625 0)"/>
      </g>
     </g>
    </g>
   </g>
   <g id="matplotlib.axis_4">
    <g id="ytick_8">
     <g id="line2d_32">
      <path d="M 297.025714 207.401594
L 484.822286 207.401594
" clip-path="url(#p8d20a58346)" style="fill: none; stroke: #d7d7d7; stroke-width: 0.6; stroke-linecap: square"/>
     </g>
     <g id="line2d_33">
      <g>
       <use xlink:href="#m85f5fc0a6d" x="297.025714" y="207.401594" style="stroke: #000000; stroke-width: 0.8"/>
      </g>
     </g>
     <g id="text_17">
      <!-- 800 -->
      <g transform="translate(270.938214 211.200422) scale(0.1 -0.1)">
       <use xlink:href="#DejaVuSerif-1b"/>
       <use xlink:href="#DejaVuSerif-13" transform="translate(63.625 0)"/>
       <use xlink:href="#DejaVuSerif-13" transform="translate(127.25 0)"/>
      </g>
     </g>
    </g>
    <g id="ytick_9">
     <g id="line2d_34">
      <path d="M 297.025714 181.773199
L 484.822286 181.773199
" clip-path="url(#p8d20a58346)" style="fill: none; stroke: #d7d7d7; stroke-width: 0.6; stroke-linecap: square"/>
     </g>
     <g id="line2d_35">
      <g>
       <use xlink:href="#m85f5fc0a6d" x="297.025714" y="181.773199" style="stroke: #000000; stroke-width: 0.8"/>
      </g>
     </g>
     <g id="text_18">
      <!-- 805 -->
      <g transform="translate(270.938214 185.572027) scale(0.1 -0.1)">
       <use xlink:href="#DejaVuSerif-1b"/>
       <use xlink:href="#DejaVuSerif-13" transform="translate(63.625 0)"/>
       <use xlink:href="#DejaVuSerif-18" transform="translate(127.25 0)"/>
      </g>
     </g>
    </g>
    <g id="ytick_10">
     <g id="line2d_36">
      <path d="M 297.025714 156.144804
L 484.822286 156.144804
" clip-path="url(#p8d20a58346)" style="fill: none; stroke: #d7d7d7; stroke-width: 0.6; stroke-linecap: square"/>
     </g>
     <g id="line2d_37">
      <g>
       <use xlink:href="#m85f5fc0a6d" x="297.025714" y="156.144804" style="stroke: #000000; stroke-width: 0.8"/>
      </g>
     </g>
     <g id="text_19">
      <!-- 810 -->
      <g transform="translate(270.938214 159.943632) scale(0.1 -0.1)">
       <use xlink:href="#DejaVuSerif-1b"/>
       <use xlink:href="#DejaVuSerif-14" transform="translate(63.625 0)"/>
       <use xlink:href="#DejaVuSerif-13" transform="translate(127.25 0)"/>
      </g>
     </g>
    </g>
    <g id="ytick_11">
     <g id="line2d_38">
      <path d="M 297.025714 130.516409
L 484.822286 130.516409
" clip-path="url(#p8d20a58346)" style="fill: none; stroke: #d7d7d7; stroke-width: 0.6; stroke-linecap: square"/>
     </g>
     <g id="line2d_39">
      <g>
       <use xlink:href="#m85f5fc0a6d" x="297.025714" y="130.516409" style="stroke: #000000; stroke-width: 0.8"/>
      </g>
     </g>
     <g id="text_20">
      <!-- 815 -->
      <g transform="translate(270.938214 134.315237) scale(0.1 -0.1)">
       <use xlink:href="#DejaVuSerif-1b"/>
       <use xlink:href="#DejaVuSerif-14" transform="translate(63.625 0)"/>
       <use xlink:href="#DejaVuSerif-18" transform="translate(127.25 0)"/>
      </g>
     </g>
    </g>
    <g id="ytick_12">
     <g id="line2d_40">
      <path d="M 297.025714 104.888014
L 484.822286 104.888014
" clip-path="url(#p8d20a58346)" style="fill: none; stroke: #d7d7d7; stroke-width: 0.6; stroke-linecap: square"/>
     </g>
     <g id="line2d_41">
      <g>
       <use xlink:href="#m85f5fc0a6d" x="297.025714" y="104.888014" style="stroke: #000000; stroke-width: 0.8"/>
      </g>
     </g>
     <g id="text_21">
      <!-- 820 -->
      <g transform="translate(270.938214 108.686842) scale(0.1 -0.1)">
       <use xlink:href="#DejaVuSerif-1b"/>
       <use xlink:href="#DejaVuSerif-15" transform="translate(63.625 0)"/>
       <use xlink:href="#DejaVuSerif-13" transform="translate(127.25 0)"/>
      </g>
     </g>
    </g>
    <g id="ytick_13">
     <g id="line2d_42">
      <path d="M 297.025714 79.259619
L 484.822286 79.259619
" clip-path="url(#p8d20a58346)" style="fill: none; stroke: #d7d7d7; stroke-width: 0.6; stroke-linecap: square"/>
     </g>
     <g id="line2d_43">
      <g>
       <use xlink:href="#m85f5fc0a6d" x="297.025714" y="79.259619" style="stroke: #000000; stroke-width: 0.8"/>
      </g>
     </g>
     <g id="text_22">
      <!-- 825 -->
      <g transform="translate(270.938214 83.058447) scale(0.1 -0.1)">
       <use xlink:href="#DejaVuSerif-1b"/>
       <use xlink:href="#DejaVuSerif-15" transform="translate(63.625 0)"/>
       <use xlink:href="#DejaVuSerif-18" transform="translate(127.25 0)"/>
      </g>
     </g>
    </g>
   </g>
   <g id="line2d_44">
    <path d="M 305.561922 219.364364
L 476.286078 122.91844
" clip-path="url(#p8d20a58346)" style="fill: none; stroke: #9c2f1f; stroke-width: 1.8; stroke-linecap: square"/>
    <g clip-path="url(#p8d20a58346)">
     <use xlink:href="#m7852e077d0" x="305.561922" y="219.364364" style="fill: #9c2f1f; stroke: #9c2f1f"/>
     <use xlink:href="#m7852e077d0" x="476.286078" y="122.91844" style="fill: #9c2f1f; stroke: #9c2f1f"/>
    </g>
   </g>
   <g id="patch_6">
    <path d="M 297.025714 226.08
L 297.025714 78.336
" style="fill: none; stroke: #000000; stroke-width: 0.8; stroke-linejoin: miter; stroke-linecap: square"/>
   </g>
   <g id="patch_7">
    <path d="M 297.025714 226.08
L 484.822286 226.08
" style="fill: none; stroke: #000000; stroke-width: 0.8; stroke-linejoin: miter; stroke-linecap: square"/>
   </g>
   <g id="PathCollection_2">
    <g clip-path="url(#p8d20a58346)">
     <use xlink:href="#mf1016eb835" x="305.561922" y="181.568172" style="fill: #ffffff; stroke: #171717"/>
     <use xlink:href="#mf1016eb835" x="476.286078" y="85.051636" style="fill: #ffffff; stroke: #171717"/>
    </g>
   </g>
   <g id="text_23">
    <!-- LiBr -->
    <g transform="translate(376.194 72.336) scale(0.12 -0.12)">
     <defs>
      <path id="DejaVuSerif-Bold-25" d="M 300 0
L 300 378
L 897 378
L 897 4288
L 300 4288
L 300 4666
L 3066 4666
Q 3919 4666 4347 4378
Q 4775 4091 4775 3513
Q 4775 3097 4479 2853
Q 4184 2609 3603 2547
Q 4306 2481 4681 2172
Q 5056 1863 5056 1350
Q 5056 656 4532 328
Q 4009 0 2894 0
L 300 0
z
M 2100 2719
L 2509 2719
Q 3047 2719 3306 2914
Q 3566 3109 3566 3513
Q 3566 3919 3314 4103
Q 3063 4288 2509 4288
L 2100 4288
L 2100 2719
z
M 2100 378
L 2547 378
Q 3144 378 3431 615
Q 3719 853 3719 1350
Q 3719 1850 3428 2097
Q 3138 2344 2547 2344
L 2100 2344
L 2100 378
z
" transform="scale(0.015625)"/>
      <path id="DejaVuSerif-Bold-55" d="M 3438 3359
L 3438 2369
L 3084 2369
Q 3066 2634 2941 2764
Q 2816 2894 2578 2894
Q 2216 2894 2006 2575
Q 1797 2256 1797 1691
L 1797 378
L 2400 378
L 2400 0
L 219 0
L 219 378
L 691 378
L 691 2944
L 184 2944
L 184 3322
L 1797 3322
L 1797 2731
Q 1959 3078 2226 3245
Q 2494 3413 2881 3413
Q 2978 3413 3117 3398
Q 3256 3384 3438 3359
z
" transform="scale(0.015625)"/>
     </defs>
     <use xlink:href="#DejaVuSerif-Bold-2f"/>
     <use xlink:href="#DejaVuSerif-Bold-4c" transform="translate(70.3125 0)"/>
     <use xlink:href="#DejaVuSerif-Bold-25" transform="translate(108.296875 0)"/>
     <use xlink:href="#DejaVuSerif-Bold-55" transform="translate(192.8125 0)"/>
    </g>
   </g>
  </g>
  <g id="axes_3">
   <g id="patch_8">
    <path d="M 531.771429 226.08
L 719.568 226.08
L 719.568 78.336
L 531.771429 78.336
z
" style="fill: #ffffff"/>
   </g>
   <g id="matplotlib.axis_5">
    <g id="xtick_9">
     <g id="line2d_45">
      <path d="M 555.448311 226.08
L 555.448311 78.336
" clip-path="url(#p1e50b8047a)" style="fill: none; stroke: #d7d7d7; stroke-width: 0.6; stroke-linecap: square"/>
     </g>
     <g id="line2d_46">
      <g>
       <use xlink:href="#m3f4a381df7" x="555.448311" y="226.08" style="stroke: #000000; stroke-width: 0.8"/>
      </g>
     </g>
     <g id="text_24">
      <!-- 0.100 -->
      <g transform="translate(541.134248 240.677656) scale(0.1 -0.1)">
       <use xlink:href="#DejaVuSerif-13"/>
       <use xlink:href="#DejaVuSerif-11" transform="translate(63.625 0)"/>
       <use xlink:href="#DejaVuSerif-14" transform="translate(95.40625 0)"/>
       <use xlink:href="#DejaVuSerif-13" transform="translate(159.03125 0)"/>
       <use xlink:href="#DejaVuSerif-13" transform="translate(222.65625 0)"/>
      </g>
     </g>
    </g>
    <g id="xtick_10">
     <g id="line2d_47">
      <path d="M 588.079074 226.08
L 588.079074 78.336
" clip-path="url(#p1e50b8047a)" style="fill: none; stroke: #d7d7d7; stroke-width: 0.6; stroke-linecap: square"/>
     </g>
     <g id="line2d_48">
      <g>
       <use xlink:href="#m3f4a381df7" x="588.079074" y="226.08" style="stroke: #000000; stroke-width: 0.8"/>
      </g>
     </g>
     <g id="text_25">
      <!-- 0.125 -->
      <g transform="translate(573.765012 240.677656) scale(0.1 -0.1)">
       <use xlink:href="#DejaVuSerif-13"/>
       <use xlink:href="#DejaVuSerif-11" transform="translate(63.625 0)"/>
       <use xlink:href="#DejaVuSerif-14" transform="translate(95.40625 0)"/>
       <use xlink:href="#DejaVuSerif-15" transform="translate(159.03125 0)"/>
       <use xlink:href="#DejaVuSerif-18" transform="translate(222.65625 0)"/>
      </g>
     </g>
    </g>
    <g id="xtick_11">
     <g id="line2d_49">
      <path d="M 620.709838 226.08
L 620.709838 78.336
" clip-path="url(#p1e50b8047a)" style="fill: none; stroke: #d7d7d7; stroke-width: 0.6; stroke-linecap: square"/>
     </g>
     <g id="line2d_50">
      <g>
       <use xlink:href="#m3f4a381df7" x="620.709838" y="226.08" style="stroke: #000000; stroke-width: 0.8"/>
      </g>
     </g>
     <g id="text_26">
      <!-- 0.150 -->
      <g transform="translate(606.395776 240.677656) scale(0.1 -0.1)">
       <use xlink:href="#DejaVuSerif-13"/>
       <use xlink:href="#DejaVuSerif-11" transform="translate(63.625 0)"/>
       <use xlink:href="#DejaVuSerif-14" transform="translate(95.40625 0)"/>
       <use xlink:href="#DejaVuSerif-18" transform="translate(159.03125 0)"/>
       <use xlink:href="#DejaVuSerif-13" transform="translate(222.65625 0)"/>
      </g>
     </g>
    </g>
    <g id="xtick_12">
     <g id="line2d_51">
      <path d="M 653.340602 226.08
L 653.340602 78.336
" clip-path="url(#p1e50b8047a)" style="fill: none; stroke: #d7d7d7; stroke-width: 0.6; stroke-linecap: square"/>
     </g>
     <g id="line2d_52">
      <g>
       <use xlink:href="#m3f4a381df7" x="653.340602" y="226.08" style="stroke: #000000; stroke-width: 0.8"/>
      </g>
     </g>
     <g id="text_27">
      <!-- 0.175 -->
      <g transform="translate(639.026539 240.677656) scale(0.1 -0.1)">
       <use xlink:href="#DejaVuSerif-13"/>
       <use xlink:href="#DejaVuSerif-11" transform="translate(63.625 0)"/>
       <use xlink:href="#DejaVuSerif-14" transform="translate(95.40625 0)"/>
       <use xlink:href="#DejaVuSerif-1a" transform="translate(159.03125 0)"/>
       <use xlink:href="#DejaVuSerif-18" transform="translate(222.65625 0)"/>
      </g>
     </g>
    </g>
    <g id="xtick_13">
     <g id="line2d_53">
      <path d="M 685.971366 226.08
L 685.971366 78.336
" clip-path="url(#p1e50b8047a)" style="fill: none; stroke: #d7d7d7; stroke-width: 0.6; stroke-linecap: square"/>
     </g>
     <g id="line2d_54">
      <g>
       <use xlink:href="#m3f4a381df7" x="685.971366" y="226.08" style="stroke: #000000; stroke-width: 0.8"/>
      </g>
     </g>
     <g id="text_28">
      <!-- 0.200 -->
      <g transform="translate(671.657303 240.677656) scale(0.1 -0.1)">
       <use xlink:href="#DejaVuSerif-13"/>
       <use xlink:href="#DejaVuSerif-11" transform="translate(63.625 0)"/>
       <use xlink:href="#DejaVuSerif-15" transform="translate(95.40625 0)"/>
       <use xlink:href="#DejaVuSerif-13" transform="translate(159.03125 0)"/>
       <use xlink:href="#DejaVuSerif-13" transform="translate(222.65625 0)"/>
      </g>
     </g>
    </g>
    <g id="xtick_14">
     <g id="line2d_55">
      <path d="M 718.602129 226.08
L 718.602129 78.336
" clip-path="url(#p1e50b8047a)" style="fill: none; stroke: #d7d7d7; stroke-width: 0.6; stroke-linecap: square"/>
     </g>
     <g id="line2d_56">
      <g>
       <use xlink:href="#m3f4a381df7" x="718.602129" y="226.08" style="stroke: #000000; stroke-width: 0.8"/>
      </g>
     </g>
     <g id="text_29">
      <!-- 0.225 -->
      <g transform="translate(704.288067 240.677656) scale(0.1 -0.1)">
       <use xlink:href="#DejaVuSerif-13"/>
       <use xlink:href="#DejaVuSerif-11" transform="translate(63.625 0)"/>
       <use xlink:href="#DejaVuSerif-15" transform="translate(95.40625 0)"/>
       <use xlink:href="#DejaVuSerif-15" transform="translate(159.03125 0)"/>
       <use xlink:href="#DejaVuSerif-18" transform="translate(222.65625 0)"/>
      </g>
     </g>
    </g>
   </g>
   <g id="matplotlib.axis_6">
    <g id="ytick_14">
     <g id="line2d_57">
      <path d="M 531.771429 218.661377
L 719.568 218.661377
" clip-path="url(#p1e50b8047a)" style="fill: none; stroke: #d7d7d7; stroke-width: 0.6; stroke-linecap: square"/>
     </g>
     <g id="line2d_58">
      <g>
       <use xlink:href="#m85f5fc0a6d" x="531.771429" y="218.661377" style="stroke: #000000; stroke-width: 0.8"/>
      </g>
     </g>
     <g id="text_30">
      <!-- 785.0 -->
      <g transform="translate(496.143304 222.460205) scale(0.1 -0.1)">
       <use xlink:href="#DejaVuSerif-1a"/>
       <use xlink:href="#DejaVuSerif-1b" transform="translate(63.625 0)"/>
       <use xlink:href="#DejaVuSerif-18" transform="translate(127.25 0)"/>
       <use xlink:href="#DejaVuSerif-11" transform="translate(190.875 0)"/>
       <use xlink:href="#DejaVuSerif-13" transform="translate(222.65625 0)"/>
      </g>
     </g>
    </g>
    <g id="ytick_15">
     <g id="line2d_59">
      <path d="M 531.771429 197.480378
L 719.568 197.480378
" clip-path="url(#p1e50b8047a)" style="fill: none; stroke: #d7d7d7; stroke-width: 0.6; stroke-linecap: square"/>
     </g>
     <g id="line2d_60">
      <g>
       <use xlink:href="#m85f5fc0a6d" x="531.771429" y="197.480378" style="stroke: #000000; stroke-width: 0.8"/>
      </g>
     </g>
     <g id="text_31">
      <!-- 787.5 -->
      <g transform="translate(496.143304 201.279206) scale(0.1 -0.1)">
       <use xlink:href="#DejaVuSerif-1a"/>
       <use xlink:href="#DejaVuSerif-1b" transform="translate(63.625 0)"/>
       <use xlink:href="#DejaVuSerif-1a" transform="translate(127.25 0)"/>
       <use xlink:href="#DejaVuSerif-11" transform="translate(190.875 0)"/>
       <use xlink:href="#DejaVuSerif-18" transform="translate(222.65625 0)"/>
      </g>
     </g>
    </g>
    <g id="ytick_16">
     <g id="line2d_61">
      <path d="M 531.771429 176.299379
L 719.568 176.299379
" clip-path="url(#p1e50b8047a)" style="fill: none; stroke: #d7d7d7; stroke-width: 0.6; stroke-linecap: square"/>
     </g>
     <g id="line2d_62">
      <g>
       <use xlink:href="#m85f5fc0a6d" x="531.771429" y="176.299379" style="stroke: #000000; stroke-width: 0.8"/>
      </g>
     </g>
     <g id="text_32">
      <!-- 790.0 -->
      <g transform="translate(496.143304 180.098207) scale(0.1 -0.1)">
       <use xlink:href="#DejaVuSerif-1a"/>
       <use xlink:href="#DejaVuSerif-1c" transform="translate(63.625 0)"/>
       <use xlink:href="#DejaVuSerif-13" transform="translate(127.25 0)"/>
       <use xlink:href="#DejaVuSerif-11" transform="translate(190.875 0)"/>
       <use xlink:href="#DejaVuSerif-13" transform="translate(222.65625 0)"/>
      </g>
     </g>
    </g>
    <g id="ytick_17">
     <g id="line2d_63">
      <path d="M 531.771429 155.11838
L 719.568 155.11838
" clip-path="url(#p1e50b8047a)" style="fill: none; stroke: #d7d7d7; stroke-width: 0.6; stroke-linecap: square"/>
     </g>
     <g id="line2d_64">
      <g>
       <use xlink:href="#m85f5fc0a6d" x="531.771429" y="155.11838" style="stroke: #000000; stroke-width: 0.8"/>
      </g>
     </g>
     <g id="text_33">
      <!-- 792.5 -->
      <g transform="translate(496.143304 158.917208) scale(0.1 -0.1)">
       <use xlink:href="#DejaVuSerif-1a"/>
       <use xlink:href="#DejaVuSerif-1c" transform="translate(63.625 0)"/>
       <use xlink:href="#DejaVuSerif-15" transform="translate(127.25 0)"/>
       <use xlink:href="#DejaVuSerif-11" transform="translate(190.875 0)"/>
       <use xlink:href="#DejaVuSerif-18" transform="translate(222.65625 0)"/>
      </g>
     </g>
    </g>
    <g id="ytick_18">
     <g id="line2d_65">
      <path d="M 531.771429 133.937381
L 719.568 133.937381
" clip-path="url(#p1e50b8047a)" style="fill: none; stroke: #d7d7d7; stroke-width: 0.6; stroke-linecap: square"/>
     </g>
     <g id="line2d_66">
      <g>
       <use xlink:href="#m85f5fc0a6d" x="531.771429" y="133.937381" style="stroke: #000000; stroke-width: 0.8"/>
      </g>
     </g>
     <g id="text_34">
      <!-- 795.0 -->
      <g transform="translate(496.143304 137.73621) scale(0.1 -0.1)">
       <use xlink:href="#DejaVuSerif-1a"/>
       <use xlink:href="#DejaVuSerif-1c" transform="translate(63.625 0)"/>
       <use xlink:href="#DejaVuSerif-18" transform="translate(127.25 0)"/>
       <use xlink:href="#DejaVuSerif-11" transform="translate(190.875 0)"/>
       <use xlink:href="#DejaVuSerif-13" transform="translate(222.65625 0)"/>
      </g>
     </g>
    </g>
    <g id="ytick_19">
     <g id="line2d_67">
      <path d="M 531.771429 112.756383
L 719.568 112.756383
" clip-path="url(#p1e50b8047a)" style="fill: none; stroke: #d7d7d7; stroke-width: 0.6; stroke-linecap: square"/>
     </g>
     <g id="line2d_68">
      <g>
       <use xlink:href="#m85f5fc0a6d" x="531.771429" y="112.756383" style="stroke: #000000; stroke-width: 0.8"/>
      </g>
     </g>
     <g id="text_35">
      <!-- 797.5 -->
      <g transform="translate(496.143304 116.555211) scale(0.1 -0.1)">
       <use xlink:href="#DejaVuSerif-1a"/>
       <use xlink:href="#DejaVuSerif-1c" transform="translate(63.625 0)"/>
       <use xlink:href="#DejaVuSerif-1a" transform="translate(127.25 0)"/>
       <use xlink:href="#DejaVuSerif-11" transform="translate(190.875 0)"/>
       <use xlink:href="#DejaVuSerif-18" transform="translate(222.65625 0)"/>
      </g>
     </g>
    </g>
    <g id="ytick_20">
     <g id="line2d_69">
      <path d="M 531.771429 91.575384
L 719.568 91.575384
" clip-path="url(#p1e50b8047a)" style="fill: none; stroke: #d7d7d7; stroke-width: 0.6; stroke-linecap: square"/>
     </g>
     <g id="line2d_70">
      <g>
       <use xlink:href="#m85f5fc0a6d" x="531.771429" y="91.575384" style="stroke: #000000; stroke-width: 0.8"/>
      </g>
     </g>
     <g id="text_36">
      <!-- 800.0 -->
      <g transform="translate(496.143304 95.374212) scale(0.1 -0.1)">
       <use xlink:href="#DejaVuSerif-1b"/>
       <use xlink:href="#DejaVuSerif-13" transform="translate(63.625 0)"/>
       <use xlink:href="#DejaVuSerif-13" transform="translate(127.25 0)"/>
       <use xlink:href="#DejaVuSerif-11" transform="translate(190.875 0)"/>
       <use xlink:href="#DejaVuSerif-13" transform="translate(222.65625 0)"/>
      </g>
     </g>
    </g>
   </g>
   <g id="line2d_71">
    <path d="M 540.307636 219.364364
L 610.52904 192.751986
L 711.031792 154.628941
" clip-path="url(#p1e50b8047a)" style="fill: none; stroke: #9c2f1f; stroke-width: 1.8; stroke-linecap: square"/>
    <g clip-path="url(#p1e50b8047a)">
     <use xlink:href="#m7852e077d0" x="540.307636" y="219.364364" style="fill: #9c2f1f; stroke: #9c2f1f"/>
     <use xlink:href="#m7852e077d0" x="610.52904" y="192.751986" style="fill: #9c2f1f; stroke: #9c2f1f"/>
     <use xlink:href="#m7852e077d0" x="711.031792" y="154.628941" style="fill: #9c2f1f; stroke: #9c2f1f"/>
    </g>
   </g>
   <g id="patch_9">
    <path d="M 531.771429 226.08
L 531.771429 78.336
" style="fill: none; stroke: #000000; stroke-width: 0.8; stroke-linejoin: miter; stroke-linecap: square"/>
   </g>
   <g id="patch_10">
    <path d="M 531.771429 226.08
L 719.568 226.08
" style="fill: none; stroke: #000000; stroke-width: 0.8; stroke-linejoin: miter; stroke-linecap: square"/>
   </g>
   <g id="PathCollection_3">
    <g clip-path="url(#p1e50b8047a)">
     <use xlink:href="#mf1016eb835" x="540.307636" y="157.405928" style="fill: #ffffff; stroke: #171717"/>
     <use xlink:href="#mf1016eb835" x="610.52904" y="125.803878" style="fill: #ffffff; stroke: #171717"/>
     <use xlink:href="#mf1016eb835" x="711.031792" y="85.051636" style="fill: #ffffff; stroke: #171717"/>
    </g>
   </g>
   <g id="text_37">
    <!-- NaBr -->
    <g transform="translate(608.065339 72.336) scale(0.12 -0.12)">
     <defs>
      <path id="DejaVuSerif-Bold-31" d="M 281 0
L 281 378
L 878 378
L 878 4288
L 281 4288
L 281 4666
L 1741 4666
L 4556 1363
L 4556 4288
L 3963 4288
L 3963 4666
L 5594 4666
L 5594 4288
L 4997 4288
L 4997 0
L 4178 0
L 1319 3372
L 1319 378
L 1913 378
L 1913 0
L 281 0
z
" transform="scale(0.015625)"/>
      <path id="DejaVuSerif-Bold-44" d="M 3525 2041
L 3525 378
L 4000 378
L 4000 0
L 2419 0
L 2419 422
Q 2200 159 1931 34
Q 1663 -91 1319 -91
Q 809 -91 536 182
Q 263 456 263 966
Q 263 1525 655 1803
Q 1047 2081 1838 2081
L 2419 2081
L 2419 2278
Q 2419 2681 2228 2873
Q 2038 3066 1638 3066
Q 1306 3066 1126 2930
Q 947 2794 872 2484
L 519 2484
L 519 3200
Q 816 3306 1134 3359
Q 1453 3413 1806 3413
Q 2697 3413 3111 3081
Q 3525 2750 3525 2041
z
M 2419 1044
L 2419 1709
L 2003 1709
Q 1694 1709 1528 1540
Q 1363 1372 1363 1056
Q 1363 741 1483 584
Q 1603 428 1850 428
Q 2106 428 2262 597
Q 2419 766 2419 1044
z
" transform="scale(0.015625)"/>
     </defs>
     <use xlink:href="#DejaVuSerif-Bold-31"/>
     <use xlink:href="#DejaVuSerif-Bold-44" transform="translate(91.40625 0)"/>
     <use xlink:href="#DejaVuSerif-Bold-25" transform="translate(156.203125 0)"/>
     <use xlink:href="#DejaVuSerif-Bold-55" transform="translate(240.71875 0)"/>
    </g>
   </g>
  </g>
  <g id="text_38">
   <!-- Salt molality, $m$ / mol kg$^{-1}$ -->
   <g transform="translate(283.284 266.973187) scale(0.12 -0.12)">
    <defs>
     <path id="DejaVuSerif-36" d="M 594 225
L 594 1288
L 953 1284
Q 969 753 1261 498
Q 1553 244 2150 244
Q 2706 244 2998 464
Q 3291 684 3291 1106
Q 3291 1444 3114 1625
Q 2938 1806 2369 1978
L 1753 2163
Q 1084 2366 811 2669
Q 538 2972 538 3500
Q 538 4094 959 4422
Q 1381 4750 2144 4750
Q 2469 4750 2856 4679
Q 3244 4609 3681 4475
L 3681 3481
L 3328 3481
Q 3275 3975 2998 4195
Q 2722 4416 2156 4416
Q 1663 4416 1405 4214
Q 1147 4013 1147 3628
Q 1147 3294 1340 3103
Q 1534 2913 2163 2725
L 2741 2553
Q 3375 2363 3645 2067
Q 3916 1772 3916 1275
Q 3916 597 3481 253
Q 3047 -91 2188 -91
Q 1803 -91 1404 -12
Q 1006 66 594 225
z
" transform="scale(0.015625)"/>
     <path id="DejaVuSerif-44" d="M 2547 1044
L 2547 1747
L 1806 1747
Q 1378 1747 1168 1562
Q 959 1378 959 997
Q 959 650 1171 447
Q 1384 244 1747 244
Q 2106 244 2326 466
Q 2547 688 2547 1044
z
M 3122 2075
L 3122 331
L 3634 331
L 3634 0
L 2547 0
L 2547 359
Q 2356 128 2106 18
Q 1856 -91 1522 -91
Q 969 -91 644 203
Q 319 497 319 997
Q 319 1513 691 1797
Q 1063 2081 1741 2081
L 2547 2081
L 2547 2309
Q 2547 2688 2317 2895
Q 2088 3103 1672 3103
Q 1328 3103 1125 2947
Q 922 2791 872 2484
L 575 2484
L 575 3156
Q 875 3284 1158 3348
Q 1441 3413 1709 3413
Q 2400 3413 2761 3070
Q 3122 2728 3122 2075
z
" transform="scale(0.015625)"/>
     <path id="DejaVuSerif-4f" d="M 1313 331
L 1856 331
L 1856 0
L 184 0
L 184 331
L 738 331
L 738 4531
L 184 4531
L 184 4863
L 1313 4863
L 1313 331
z
" transform="scale(0.015625)"/>
     <path id="DejaVuSerif-57" d="M 691 2988
L 184 2988
L 184 3322
L 691 3322
L 691 4353
L 1269 4353
L 1269 3322
L 2350 3322
L 2350 2988
L 1269 2988
L 1269 878
Q 1269 456 1350 337
Q 1431 219 1650 219
Q 1875 219 1978 351
Q 2081 484 2088 781
L 2522 781
Q 2497 328 2275 118
Q 2053 -91 1600 -91
Q 1103 -91 897 129
Q 691 350 691 878
L 691 2988
z
" transform="scale(0.015625)"/>
     <path id="DejaVuSerif-3" transform="scale(0.015625)"/>
     <path id="DejaVuSerif-50" d="M 3316 2675
Q 3481 3041 3739 3227
Q 3997 3413 4341 3413
Q 4863 3413 5119 3089
Q 5375 2766 5375 2113
L 5375 331
L 5894 331
L 5894 0
L 4300 0
L 4300 331
L 4800 331
L 4800 2047
Q 4800 2556 4650 2772
Q 4500 2988 4153 2988
Q 3769 2988 3567 2697
Q 3366 2406 3366 1850
L 3366 331
L 3866 331
L 3866 0
L 2291 0
L 2291 331
L 2791 331
L 2791 2069
Q 2791 2566 2641 2777
Q 2491 2988 2144 2988
Q 1759 2988 1557 2697
Q 1356 2406 1356 1850
L 1356 331
L 1856 331
L 1856 0
L 263 0
L 263 331
L 781 331
L 781 2994
L 231 2994
L 231 3322
L 1356 3322
L 1356 2731
Q 1516 3063 1762 3238
Q 2009 3413 2322 3413
Q 2709 3413 2968 3220
Q 3228 3028 3316 2675
z
" transform="scale(0.015625)"/>
     <path id="DejaVuSerif-52" d="M 1925 219
Q 2388 219 2623 584
Q 2859 950 2859 1663
Q 2859 2375 2623 2739
Q 2388 3103 1925 3103
Q 1463 3103 1227 2739
Q 991 2375 991 1663
Q 991 950 1228 584
Q 1466 219 1925 219
z
M 1925 -91
Q 1200 -91 759 389
Q 319 869 319 1663
Q 319 2456 758 2934
Q 1197 3413 1925 3413
Q 2653 3413 3092 2934
Q 3531 2456 3531 1663
Q 3531 869 3092 389
Q 2653 -91 1925 -91
z
" transform="scale(0.015625)"/>
     <path id="DejaVuSerif-4c" d="M 622 4353
Q 622 4497 726 4603
Q 831 4709 978 4709
Q 1122 4709 1226 4603
Q 1331 4497 1331 4353
Q 1331 4206 1228 4103
Q 1125 4000 978 4000
Q 831 4000 726 4103
Q 622 4206 622 4353
z
M 1356 331
L 1900 331
L 1900 0
L 231 0
L 231 331
L 781 331
L 781 2988
L 231 2988
L 231 3322
L 1356 3322
L 1356 331
z
" transform="scale(0.015625)"/>
     <path id="DejaVuSerif-5c" d="M 1381 -609
L 1600 -56
L 359 2988
L -19 2988
L -19 3322
L 1509 3322
L 1509 2988
L 978 2988
L 1913 703
L 2847 2988
L 2350 2988
L 2350 3322
L 3597 3322
L 3597 2988
L 3225 2988
L 1703 -750
Q 1547 -1138 1356 -1280
Q 1166 -1422 819 -1422
Q 672 -1422 517 -1397
Q 363 -1372 206 -1325
L 206 -691
L 500 -691
Q 519 -903 608 -995
Q 697 -1088 884 -1088
Q 1056 -1088 1161 -992
Q 1266 -897 1381 -609
z
" transform="scale(0.015625)"/>
     <path id="DejaVuSerif-f" d="M 231 -622
Q 525 -406 662 -114
Q 800 178 800 594
L 800 709
L 1416 709
Q 1391 175 1164 -208
Q 938 -591 481 -872
L 231 -622
z
" transform="scale(0.015625)"/>
     <path id="DejaVuSans-Oblique-50" d="M 5747 2113
L 5338 0
L 4763 0
L 5166 2094
Q 5191 2228 5203 2325
Q 5216 2422 5216 2491
Q 5216 2772 5059 2928
Q 4903 3084 4622 3084
Q 4203 3084 3875 2770
Q 3547 2456 3450 1953
L 3066 0
L 2491 0
L 2900 2094
Q 2925 2209 2937 2307
Q 2950 2406 2950 2484
Q 2950 2769 2794 2926
Q 2638 3084 2363 3084
Q 1938 3084 1609 2770
Q 1281 2456 1184 1953
L 800 0
L 225 0
L 909 3500
L 1484 3500
L 1375 2956
Q 1609 3263 1923 3423
Q 2238 3584 2597 3584
Q 2978 3584 3223 3384
Q 3469 3184 3519 2828
Q 3781 3197 4126 3390
Q 4472 3584 4856 3584
Q 5306 3584 5551 3325
Q 5797 3066 5797 2591
Q 5797 2488 5784 2364
Q 5772 2241 5747 2113
z
" transform="scale(0.015625)"/>
     <path id="DejaVuSerif-12" d="M 1656 4666
L 2156 4666
L 500 -594
L 0 -594
L 1656 4666
z
" transform="scale(0.015625)"/>
     <path id="DejaVuSerif-4e" d="M 1831 0
L 219 0
L 219 331
L 738 331
L 738 4531
L 184 4531
L 184 4863
L 1313 4863
L 1313 1697
L 2713 2988
L 2234 2988
L 2234 3322
L 3738 3322
L 3738 2988
L 3169 2988
L 2181 2075
L 3444 331
L 3922 331
L 3922 0
L 2284 0
L 2284 331
L 2759 331
L 1766 1697
L 1313 1275
L 1313 331
L 1831 331
L 1831 0
z
" transform="scale(0.015625)"/>
     <path id="DejaVuSerif-4a" d="M 3359 2988
L 3359 72
Q 3359 -644 2965 -1033
Q 2572 -1422 1844 -1422
Q 1516 -1422 1216 -1362
Q 916 -1303 641 -1184
L 641 -488
L 941 -488
Q 997 -813 1206 -963
Q 1416 -1113 1806 -1113
Q 2313 -1113 2548 -827
Q 2784 -541 2784 72
L 2784 519
Q 2616 206 2355 57
Q 2094 -91 1709 -91
Q 1097 -91 708 395
Q 319 881 319 1663
Q 319 2444 706 2928
Q 1094 3413 1709 3413
Q 2094 3413 2355 3264
Q 2616 3116 2784 2803
L 2784 3322
L 3909 3322
L 3909 2988
L 3359 2988
z
M 2784 1825
Q 2784 2422 2554 2737
Q 2325 3053 1888 3053
Q 1444 3053 1217 2703
Q 991 2353 991 1663
Q 991 975 1217 622
Q 1444 269 1888 269
Q 2325 269 2554 583
Q 2784 897 2784 1497
L 2784 1825
z
" transform="scale(0.015625)"/>
     <path id="DejaVuSans-c9c" d="M 678 2272
L 4684 2272
L 4684 1741
L 678 1741
L 678 2272
z
" transform="scale(0.015625)"/>
     <path id="DejaVuSans-14" d="M 794 531
L 1825 531
L 1825 4091
L 703 3866
L 703 4441
L 1819 4666
L 2450 4666
L 2450 531
L 3481 531
L 3481 0
L 794 0
L 794 531
z
" transform="scale(0.015625)"/>
    </defs>
    <use xlink:href="#DejaVuSerif-36" transform="translate(0 0.665625)"/>
    <use xlink:href="#DejaVuSerif-44" transform="translate(68.505859 0.665625)"/>
    <use xlink:href="#DejaVuSerif-4f" transform="translate(128.125 0.665625)"/>
    <use xlink:href="#DejaVuSerif-57" transform="translate(160.107422 0.665625)"/>
    <use xlink:href="#DejaVuSerif-3" transform="translate(200.292969 0.665625)"/>
    <use xlink:href="#DejaVuSerif-50" transform="translate(232.080078 0.665625)"/>
    <use xlink:href="#DejaVuSerif-52" transform="translate(326.904297 0.665625)"/>
    <use xlink:href="#DejaVuSerif-4f" transform="translate(387.109375 0.665625)"/>
    <use xlink:href="#DejaVuSerif-44" transform="translate(419.091797 0.665625)"/>
    <use xlink:href="#DejaVuSerif-4f" transform="translate(478.710938 0.665625)"/>
    <use xlink:href="#DejaVuSerif-4c" transform="translate(510.693359 0.665625)"/>
    <use xlink:href="#DejaVuSerif-57" transform="translate(542.675781 0.665625)"/>
    <use xlink:href="#DejaVuSerif-5c" transform="translate(582.861328 0.665625)"/>
    <use xlink:href="#DejaVuSerif-f" transform="translate(626.355469 0.665625)"/>
    <use xlink:href="#DejaVuSerif-3" transform="translate(658.142578 0.665625)"/>
    <use xlink:href="#DejaVuSans-Oblique-50" transform="translate(689.929688 0.665625)"/>
    <use xlink:href="#DejaVuSerif-3" transform="translate(787.341797 0.665625)"/>
    <use xlink:href="#DejaVuSerif-12" transform="translate(819.128906 0.665625)"/>
    <use xlink:href="#DejaVuSerif-3" transform="translate(852.820312 0.665625)"/>
    <use xlink:href="#DejaVuSerif-50" transform="translate(884.607422 0.665625)"/>
    <use xlink:href="#DejaVuSerif-52" transform="translate(979.431641 0.665625)"/>
    <use xlink:href="#DejaVuSerif-4f" transform="translate(1039.636719 0.665625)"/>
    <use xlink:href="#DejaVuSerif-3" transform="translate(1071.619141 0.665625)"/>
    <use xlink:href="#DejaVuSerif-4e" transform="translate(1103.40625 0.665625)"/>
    <use xlink:href="#DejaVuSerif-4a" transform="translate(1164.001953 0.665625)"/>
    <use xlink:href="#DejaVuSans-c9c" transform="translate(1228.972656 41.965625) scale(0.7)"/>
    <use xlink:href="#DejaVuSans-14" transform="translate(1287.625 41.965625) scale(0.7)"/>
   </g>
  </g>
  <g id="text_39">
   <!-- Solution density, $\rho$ / kg m$^{-3}$ -->
   <g transform="translate(18.48 221.988) rotate(-90) scale(0.12 -0.12)">
    <defs>
     <path id="DejaVuSerif-58" d="M 2266 3322
L 3341 3322
L 3341 331
L 3884 331
L 3884 0
L 2766 0
L 2766 588
Q 2606 256 2353 82
Q 2100 -91 1766 -91
Q 1213 -91 952 223
Q 691 538 691 1209
L 691 2988
L 172 2988
L 172 3322
L 1269 3322
L 1269 1388
Q 1269 781 1417 556
Q 1566 331 1947 331
Q 2347 331 2556 625
Q 2766 919 2766 1478
L 2766 2988
L 2266 2988
L 2266 3322
z
" transform="scale(0.015625)"/>
     <path id="DejaVuSerif-51" d="M 263 0
L 263 331
L 781 331
L 781 2988
L 231 2988
L 231 3322
L 1356 3322
L 1356 2731
Q 1516 3069 1770 3241
Q 2025 3413 2363 3413
Q 2913 3413 3172 3097
Q 3431 2781 3431 2113
L 3431 331
L 3944 331
L 3944 0
L 2356 0
L 2356 331
L 2853 331
L 2853 1931
Q 2853 2541 2703 2767
Q 2553 2994 2175 2994
Q 1775 2994 1565 2701
Q 1356 2409 1356 1850
L 1356 331
L 1856 331
L 1856 0
L 263 0
z
" transform="scale(0.015625)"/>
     <path id="DejaVuSerif-47" d="M 3359 331
L 3909 331
L 3909 0
L 2784 0
L 2784 519
Q 2616 206 2355 57
Q 2094 -91 1709 -91
Q 1097 -91 708 395
Q 319 881 319 1663
Q 319 2444 706 2928
Q 1094 3413 1709 3413
Q 2094 3413 2355 3264
Q 2616 3116 2784 2803
L 2784 4531
L 2241 4531
L 2241 4863
L 3359 4863
L 3359 331
z
M 2784 1497
L 2784 1825
Q 2784 2422 2554 2737
Q 2325 3053 1888 3053
Q 1444 3053 1217 2703
Q 991 2353 991 1663
Q 991 975 1217 622
Q 1444 269 1888 269
Q 2325 269 2554 583
Q 2784 897 2784 1497
z
" transform="scale(0.015625)"/>
     <path id="DejaVuSerif-48" d="M 3469 1600
L 991 1600
L 991 1575
Q 991 903 1244 561
Q 1497 219 1991 219
Q 2369 219 2611 417
Q 2853 616 2950 1006
L 3413 1006
Q 3275 459 2904 184
Q 2534 -91 1931 -91
Q 1203 -91 761 389
Q 319 869 319 1663
Q 319 2450 753 2931
Q 1188 3413 1894 3413
Q 2647 3413 3050 2948
Q 3453 2484 3469 1600
z
M 2791 1931
Q 2772 2513 2545 2808
Q 2319 3103 1894 3103
Q 1497 3103 1269 2806
Q 1041 2509 991 1931
L 2791 1931
z
" transform="scale(0.015625)"/>
     <path id="DejaVuSerif-56" d="M 359 184
L 359 959
L 691 959
Q 703 588 923 403
Q 1144 219 1575 219
Q 1963 219 2166 364
Q 2369 509 2369 788
Q 2369 1006 2220 1140
Q 2072 1275 1594 1428
L 1178 1569
Q 750 1706 558 1912
Q 366 2119 366 2438
Q 366 2894 700 3153
Q 1034 3413 1625 3413
Q 1888 3413 2178 3344
Q 2469 3275 2778 3144
L 2778 2419
L 2447 2419
Q 2434 2741 2221 2922
Q 2009 3103 1644 3103
Q 1281 3103 1095 2975
Q 909 2847 909 2591
Q 909 2381 1050 2254
Q 1191 2128 1613 1997
L 2069 1856
Q 2541 1709 2748 1489
Q 2956 1269 2956 922
Q 2956 450 2595 179
Q 2234 -91 1600 -91
Q 1278 -91 972 -22
Q 666 47 359 184
z
" transform="scale(0.015625)"/>
     <path id="DejaVuSans-Oblique-355" d="M 1203 2875
Q 1453 3194 1981 3475
Q 2188 3584 2756 3584
Q 3394 3584 3694 3078
Q 3994 2572 3834 1747
Q 3672 922 3175 415
Q 2678 -91 2041 -91
Q 1656 -91 1409 63
Q 1163 213 1044 525
L 681 -1331
L 103 -1331
L 697 1716
Q 838 2438 1203 2875
z
M 3238 1747
Q 3359 2381 3169 2744
Q 2978 3103 2522 3103
Q 2066 3103 1734 2744
Q 1403 2381 1281 1747
Q 1156 1113 1347 750
Q 1538 391 1994 391
Q 2450 391 2781 750
Q 3113 1113 3238 1747
z
" transform="scale(0.015625)"/>
     <path id="DejaVuSans-16" d="M 2597 2516
Q 3050 2419 3304 2112
Q 3559 1806 3559 1356
Q 3559 666 3084 287
Q 2609 -91 1734 -91
Q 1441 -91 1130 -33
Q 819 25 488 141
L 488 750
Q 750 597 1062 519
Q 1375 441 1716 441
Q 2309 441 2620 675
Q 2931 909 2931 1356
Q 2931 1769 2642 2001
Q 2353 2234 1838 2234
L 1294 2234
L 1294 2753
L 1863 2753
Q 2328 2753 2575 2939
Q 2822 3125 2822 3475
Q 2822 3834 2567 4026
Q 2313 4219 1838 4219
Q 1578 4219 1281 4162
Q 984 4106 628 3988
L 628 4550
Q 988 4650 1302 4700
Q 1616 4750 1894 4750
Q 2613 4750 3031 4423
Q 3450 4097 3450 3541
Q 3450 3153 3228 2886
Q 3006 2619 2597 2516
z
" transform="scale(0.015625)"/>
    </defs>
    <use xlink:href="#DejaVuSerif-36" transform="translate(0 0.746875)"/>
    <use xlink:href="#DejaVuSerif-52" transform="translate(68.505859 0.746875)"/>
    <use xlink:href="#DejaVuSerif-4f" transform="translate(128.710938 0.746875)"/>
    <use xlink:href="#DejaVuSerif-58" transform="translate(160.693359 0.746875)"/>
    <use xlink:href="#DejaVuSerif-57" transform="translate(225.097656 0.746875)"/>
    <use xlink:href="#DejaVuSerif-4c" transform="translate(265.283203 0.746875)"/>
    <use xlink:href="#DejaVuSerif-52" transform="translate(297.265625 0.746875)"/>
    <use xlink:href="#DejaVuSerif-51" transform="translate(357.470703 0.746875)"/>
    <use xlink:href="#DejaVuSerif-3" transform="translate(421.875 0.746875)"/>
    <use xlink:href="#DejaVuSerif-47" transform="translate(453.662109 0.746875)"/>
    <use xlink:href="#DejaVuSerif-48" transform="translate(517.675781 0.746875)"/>
    <use xlink:href="#DejaVuSerif-51" transform="translate(576.855469 0.746875)"/>
    <use xlink:href="#DejaVuSerif-56" transform="translate(641.259766 0.746875)"/>
    <use xlink:href="#DejaVuSerif-4c" transform="translate(692.578125 0.746875)"/>
    <use xlink:href="#DejaVuSerif-57" transform="translate(724.560547 0.746875)"/>
    <use xlink:href="#DejaVuSerif-5c" transform="translate(764.746094 0.746875)"/>
    <use xlink:href="#DejaVuSerif-f" transform="translate(808.240234 0.746875)"/>
    <use xlink:href="#DejaVuSerif-3" transform="translate(840.027344 0.746875)"/>
    <use xlink:href="#DejaVuSans-Oblique-355" transform="translate(871.814453 0.746875)"/>
    <use xlink:href="#DejaVuSerif-3" transform="translate(935.291016 0.746875)"/>
    <use xlink:href="#DejaVuSerif-12" transform="translate(967.078125 0.746875)"/>
    <use xlink:href="#DejaVuSerif-3" transform="translate(1000.769531 0.746875)"/>
    <use xlink:href="#DejaVuSerif-4e" transform="translate(1032.556641 0.746875)"/>
    <use xlink:href="#DejaVuSerif-4a" transform="translate(1093.152344 0.746875)"/>
    <use xlink:href="#DejaVuSerif-3" transform="translate(1157.166016 0.746875)"/>
    <use xlink:href="#DejaVuSerif-50" transform="translate(1188.953125 0.746875)"/>
    <use xlink:href="#DejaVuSans-c9c" transform="translate(1284.734375 42.046875) scale(0.7)"/>
    <use xlink:href="#DejaVuSans-16" transform="translate(1343.386719 42.046875) scale(0.7)"/>
   </g>
  </g>
  <g id="text_40">
   <!-- Ethanol electrolyte densities at 298.15 K -->
   <g transform="translate(238.9965 16.318125) scale(0.12 -0.12)">
    <defs>
     <path id="DejaVuSerif-28" d="M 353 0
L 353 331
L 947 331
L 947 4331
L 353 4331
L 353 4666
L 4109 4666
L 4109 3628
L 3725 3628
L 3725 4281
L 1581 4281
L 1581 2719
L 3109 2719
L 3109 3303
L 3494 3303
L 3494 1753
L 3109 1753
L 3109 2338
L 1581 2338
L 1581 384
L 3775 384
L 3775 1038
L 4159 1038
L 4159 0
L 353 0
z
" transform="scale(0.015625)"/>
     <path id="DejaVuSerif-4b" d="M 263 0
L 263 331
L 781 331
L 781 4531
L 231 4531
L 231 4863
L 1356 4863
L 1356 2731
Q 1516 3069 1770 3241
Q 2025 3413 2363 3413
Q 2913 3413 3172 3097
Q 3431 2781 3431 2113
L 3431 331
L 3944 331
L 3944 0
L 2356 0
L 2356 331
L 2853 331
L 2853 1931
Q 2853 2541 2704 2764
Q 2556 2988 2175 2988
Q 1775 2988 1565 2697
Q 1356 2406 1356 1850
L 1356 331
L 1856 331
L 1856 0
L 263 0
z
" transform="scale(0.015625)"/>
     <path id="DejaVuSerif-46" d="M 3291 997
Q 3169 466 2822 187
Q 2475 -91 1925 -91
Q 1200 -91 759 389
Q 319 869 319 1663
Q 319 2459 759 2936
Q 1200 3413 1925 3413
Q 2241 3413 2553 3339
Q 2866 3266 3181 3116
L 3181 2266
L 2847 2266
Q 2781 2703 2561 2903
Q 2341 3103 1931 3103
Q 1466 3103 1228 2742
Q 991 2381 991 1663
Q 991 944 1227 581
Q 1463 219 1931 219
Q 2303 219 2525 412
Q 2747 606 2828 997
L 3291 997
z
" transform="scale(0.015625)"/>
     <path id="DejaVuSerif-55" d="M 3059 3328
L 3059 2497
L 2728 2497
Q 2713 2744 2591 2866
Q 2469 2988 2234 2988
Q 1809 2988 1582 2694
Q 1356 2400 1356 1850
L 1356 331
L 2022 331
L 2022 0
L 263 0
L 263 331
L 781 331
L 781 2994
L 231 2994
L 231 3322
L 1356 3322
L 1356 2731
Q 1525 3078 1790 3245
Q 2056 3413 2438 3413
Q 2578 3413 2733 3391
Q 2888 3369 3059 3328
z
" transform="scale(0.015625)"/>
     <path id="DejaVuSerif-2e" d="M 353 0
L 353 331
L 947 331
L 947 4331
L 353 4331
L 353 4666
L 2175 4666
L 2175 4331
L 1581 4331
L 1581 2566
L 3591 4331
L 3084 4331
L 3084 4666
L 4634 4666
L 4634 4331
L 4109 4331
L 2106 2572
L 4347 331
L 4878 331
L 4878 0
L 3794 0
L 1581 2216
L 1581 331
L 2175 331
L 2175 0
L 353 0
z
" transform="scale(0.015625)"/>
    </defs>
    <use xlink:href="#DejaVuSerif-28"/>
    <use xlink:href="#DejaVuSerif-57" transform="translate(73 0)"/>
    <use xlink:href="#DejaVuSerif-4b" transform="translate(113.1875 0)"/>
    <use xlink:href="#DejaVuSerif-44" transform="translate(177.59375 0)"/>
    <use xlink:href="#DejaVuSerif-51" transform="translate(237.21875 0)"/>
    <use xlink:href="#DejaVuSerif-52" transform="translate(301.625 0)"/>
    <use xlink:href="#DejaVuSerif-4f" transform="translate(361.828125 0)"/>
    <use xlink:href="#DejaVuSerif-3" transform="translate(393.8125 0)"/>
    <use xlink:href="#DejaVuSerif-48" transform="translate(425.59375 0)"/>
    <use xlink:href="#DejaVuSerif-4f" transform="translate(484.78125 0)"/>
    <use xlink:href="#DejaVuSerif-48" transform="translate(516.765625 0)"/>
    <use xlink:href="#DejaVuSerif-46" transform="translate(575.953125 0)"/>
    <use xlink:href="#DejaVuSerif-57" transform="translate(631.953125 0)"/>
    <use xlink:href="#DejaVuSerif-55" transform="translate(672.140625 0)"/>
    <use xlink:href="#DejaVuSerif-52" transform="translate(719.9375 0)"/>
    <use xlink:href="#DejaVuSerif-4f" transform="translate(780.140625 0)"/>
    <use xlink:href="#DejaVuSerif-5c" transform="translate(812.125 0)"/>
    <use xlink:href="#DejaVuSerif-57" transform="translate(868.625 0)"/>
    <use xlink:href="#DejaVuSerif-48" transform="translate(908.8125 0)"/>
    <use xlink:href="#DejaVuSerif-3" transform="translate(968 0)"/>
    <use xlink:href="#DejaVuSerif-47" transform="translate(999.78125 0)"/>
    <use xlink:href="#DejaVuSerif-48" transform="translate(1063.796875 0)"/>
    <use xlink:href="#DejaVuSerif-51" transform="translate(1122.984375 0)"/>
    <use xlink:href="#DejaVuSerif-56" transform="translate(1187.390625 0)"/>
    <use xlink:href="#DejaVuSerif-4c" transform="translate(1238.703125 0)"/>
    <use xlink:href="#DejaVuSerif-57" transform="translate(1270.6875 0)"/>
    <use xlink:href="#DejaVuSerif-4c" transform="translate(1310.875 0)"/>
    <use xlink:href="#DejaVuSerif-48" transform="translate(1342.859375 0)"/>
    <use xlink:href="#DejaVuSerif-56" transform="translate(1402.046875 0)"/>
    <use xlink:href="#DejaVuSerif-3" transform="translate(1453.359375 0)"/>
    <use xlink:href="#DejaVuSerif-44" transform="translate(1485.140625 0)"/>
    <use xlink:href="#DejaVuSerif-57" transform="translate(1544.765625 0)"/>
    <use xlink:href="#DejaVuSerif-3" transform="translate(1584.953125 0)"/>
    <use xlink:href="#DejaVuSerif-15" transform="translate(1616.734375 0)"/>
    <use xlink:href="#DejaVuSerif-1c" transform="translate(1680.359375 0)"/>
    <use xlink:href="#DejaVuSerif-1b" transform="translate(1743.984375 0)"/>
    <use xlink:href="#DejaVuSerif-11" transform="translate(1807.609375 0)"/>
    <use xlink:href="#DejaVuSerif-14" transform="translate(1839.390625 0)"/>
    <use xlink:href="#DejaVuSerif-18" transform="translate(1903.015625 0)"/>
    <use xlink:href="#DejaVuSerif-3" transform="translate(1966.640625 0)"/>
    <use xlink:href="#DejaVuSerif-2e" transform="translate(1998.421875 0)"/>
   </g>
  </g>
  <g id="legend_1">
   <g id="PathCollection_4">
    <g>
     <use xlink:href="#mf1016eb835" x="254.008219" y="48.533437" style="fill: #ffffff; stroke: #171717"/>
    </g>
   </g>
   <g id="text_41">
    <!-- Held et al. (2012) -->
    <g transform="translate(272.008219 51.158437) scale(0.1 -0.1)">
     <defs>
      <path id="DejaVuSerif-2b" d="M 353 0
L 353 331
L 947 331
L 947 4331
L 353 4331
L 353 4666
L 2175 4666
L 2175 4331
L 1581 4331
L 1581 2719
L 4000 2719
L 4000 4331
L 3406 4331
L 3406 4666
L 5228 4666
L 5228 4331
L 4634 4331
L 4634 331
L 5228 331
L 5228 0
L 3406 0
L 3406 331
L 4000 331
L 4000 2338
L 1581 2338
L 1581 331
L 2175 331
L 2175 0
L 353 0
z
" transform="scale(0.015625)"/>
      <path id="DejaVuSerif-b" d="M 2041 -997
Q 1281 -656 893 83
Q 506 822 506 1931
Q 506 3044 893 3783
Q 1281 4522 2041 4863
L 2041 4556
Q 1559 4225 1350 3623
Q 1141 3022 1141 1931
Q 1141 844 1350 242
Q 1559 -359 2041 -691
L 2041 -997
z
" transform="scale(0.015625)"/>
      <path id="DejaVuSerif-c" d="M 453 -997
L 453 -691
Q 934 -359 1145 242
Q 1356 844 1356 1931
Q 1356 3022 1145 3623
Q 934 4225 453 4556
L 453 4863
Q 1216 4522 1603 3783
Q 1991 3044 1991 1931
Q 1991 822 1603 83
Q 1216 -656 453 -997
z
" transform="scale(0.015625)"/>
     </defs>
     <use xlink:href="#DejaVuSerif-2b"/>
     <use xlink:href="#DejaVuSerif-48" transform="translate(87.203125 0)"/>
     <use xlink:href="#DejaVuSerif-4f" transform="translate(146.390625 0)"/>
     <use xlink:href="#DejaVuSerif-47" transform="translate(178.375 0)"/>
     <use xlink:href="#DejaVuSerif-3" transform="translate(242.390625 0)"/>
     <use xlink:href="#DejaVuSerif-48" transform="translate(274.171875 0)"/>
     <use xlink:href="#DejaVuSerif-57" transform="translate(333.359375 0)"/>
     <use xlink:href="#DejaVuSerif-3" transform="translate(373.546875 0)"/>
     <use xlink:href="#DejaVuSerif-44" transform="translate(405.328125 0)"/>
     <use xlink:href="#DejaVuSerif-4f" transform="translate(464.953125 0)"/>
     <use xlink:href="#DejaVuSerif-11" transform="translate(496.9375 0)"/>
     <use xlink:href="#DejaVuSerif-3" transform="translate(528.71875 0)"/>
     <use xlink:href="#DejaVuSerif-b" transform="translate(560.5 0)"/>
     <use xlink:href="#DejaVuSerif-15" transform="translate(599.515625 0)"/>
     <use xlink:href="#DejaVuSerif-13" transform="translate(663.140625 0)"/>
     <use xlink:href="#DejaVuSerif-14" transform="translate(726.765625 0)"/>
     <use xlink:href="#DejaVuSerif-15" transform="translate(790.390625 0)"/>
     <use xlink:href="#DejaVuSerif-c" transform="translate(854.015625 0)"/>
    </g>
   </g>
   <g id="line2d_72">
    <path d="M 381.311344 47.658437
L 391.311344 47.658437
L 401.311344 47.658437
" style="fill: none; stroke: #9c2f1f; stroke-width: 1.8; stroke-linecap: square"/>
    <g>
     <use xlink:href="#m7852e077d0" x="391.311344" y="47.658437" style="fill: #9c2f1f; stroke: #9c2f1f"/>
    </g>
   </g>
   <g id="text_42">
    <!-- clean provider -->
    <g transform="translate(409.311344 51.158437) scale(0.1 -0.1)">
     <defs>
      <path id="DejaVuSerif-53" d="M 1313 1825
L 1313 1497
Q 1313 897 1542 583
Q 1772 269 2209 269
Q 2650 269 2876 622
Q 3103 975 3103 1663
Q 3103 2353 2876 2703
Q 2650 3053 2209 3053
Q 1772 3053 1542 2737
Q 1313 2422 1313 1825
z
M 738 2988
L 184 2988
L 184 3322
L 1313 3322
L 1313 2803
Q 1481 3116 1742 3264
Q 2003 3413 2388 3413
Q 3000 3413 3387 2928
Q 3775 2444 3775 1663
Q 3775 881 3387 395
Q 3000 -91 2388 -91
Q 2003 -91 1742 57
Q 1481 206 1313 519
L 1313 -997
L 1856 -997
L 1856 -1331
L 184 -1331
L 184 -997
L 738 -997
L 738 2988
z
" transform="scale(0.015625)"/>
      <path id="DejaVuSerif-59" d="M 1581 0
L 359 2988
L -19 2988
L -19 3322
L 1509 3322
L 1509 2988
L 978 2988
L 1913 703
L 2847 2988
L 2350 2988
L 2350 3322
L 3597 3322
L 3597 2988
L 3225 2988
L 2003 0
L 1581 0
z
" transform="scale(0.015625)"/>
     </defs>
     <use xlink:href="#DejaVuSerif-46"/>
     <use xlink:href="#DejaVuSerif-4f" transform="translate(56 0)"/>
     <use xlink:href="#DejaVuSerif-48" transform="translate(87.984375 0)"/>
     <use xlink:href="#DejaVuSerif-44" transform="translate(147.171875 0)"/>
     <use xlink:href="#DejaVuSerif-51" transform="translate(206.796875 0)"/>
     <use xlink:href="#DejaVuSerif-3" transform="translate(271.203125 0)"/>
     <use xlink:href="#DejaVuSerif-53" transform="translate(302.984375 0)"/>
     <use xlink:href="#DejaVuSerif-55" transform="translate(367 0)"/>
     <use xlink:href="#DejaVuSerif-52" transform="translate(414.796875 0)"/>
     <use xlink:href="#DejaVuSerif-59" transform="translate(475 0)"/>
     <use xlink:href="#DejaVuSerif-4c" transform="translate(531.5 0)"/>
     <use xlink:href="#DejaVuSerif-47" transform="translate(563.484375 0)"/>
     <use xlink:href="#DejaVuSerif-48" transform="translate(627.5 0)"/>
     <use xlink:href="#DejaVuSerif-55" transform="translate(686.6875 0)"/>
    </g>
   </g>
  </g>
 </g>
 <defs>
  <clipPath id="p0a7096b002">
   <rect x="62.28" y="78.336" width="187.796571" height="147.744"/>
  </clipPath>
  <clipPath id="p8d20a58346">
   <rect x="297.025714" y="78.336" width="187.796571" height="147.744"/>
  </clipPath>
  <clipPath id="p1e50b8047a">
   <rect x="531.771429" y="78.336" width="187.796571" height="147.744"/>
  </clipPath>
 </defs>
</svg>
