<?xml version="1.0" encoding="utf-8" standalone="no"?>
<!DOCTYPE svg PUBLIC "-//W3C//DTD SVG 1.1//EN"
  "http://www.w3.org/Graphics/SVG/1.1/DTD/svg11.dtd">
<svg xmlns:xlink="http://www.w3.org/1999/xlink" width="361.540781pt" height="257.190906pt" viewBox="0 0 361.540781 257.190906" xmlns="http://www.w3.org/2000/svg" version="1.1">
 <metadata>
  <rdf:RDF xmlns:dc="http://purl.org/dc/elements/1.1/" xmlns:cc="http://creativecommons.org/ns#" xmlns:rdf="http://www.w3.org/1999/02/22-rdf-syntax-ns#">
   <cc:Work>
    <dc:type rdf:resource="http://purl.org/dc/dcmitype/StillImage"/>
    <dc:date>2026-07-17T02:18:42.093350</dc:date>
    <dc:format>image/svg+xml</dc:format>
    <dc:creator>
     <cc:Agent>
      <dc:title>Matplotlib v3.11.0, https://matplotlib.org/</dc:title>
     </cc:Agent>
    </dc:creator>
   </cc:Work>
  </rdf:RDF>
 </metadata>
 <defs>
  <style type="text/css">*{stroke-linejoin: round; stroke-linecap: butt}</style>
 </defs>
 <g id="figure_1">
  <g id="patch_1">
   <path d="M 0 257.190906
L 361.540781 257.190906
L 361.540781 0
L 0 0
z
" style="fill: #ffffff"/>
  </g>
  <g id="axes_1">
   <g id="patch_2">
    <path d="M 49.089844 232.990125
L 339.249844 232.990125
L 339.249844 22.318125
L 49.089844 22.318125
z
" style="fill: #ffffff"/>
   </g>
   <g id="patch_3">
    <path d="M 62.278935 4235.758125
L 179.515298 4235.758125
L 179.515298 98.476053
L 62.278935 98.476053
z
" clip-path="url(#p411f8c51b4)" style="fill: #ffffff; stroke: #171717; stroke-linejoin: miter"/>
   </g>
   <g id="patch_4">
    <path d="M 208.824389 4235.758125
L 326.060753 4235.758125
L 326.060753 128.787111
L 208.824389 128.787111
z
" clip-path="url(#p411f8c51b4)" style="fill: #6a4c93; stroke: #171717; stroke-linejoin: miter"/>
   </g>
   <g id="matplotlib.axis_1">
    <g id="xtick_1">
     <g id="line2d_1">
      <defs>
       <path id="m9ede9b1a7d" d="M 0 0
L 0 3.5
" style="stroke: #000000; stroke-width: 0.8"/>
      </defs>
      <g>
       <use xlink:href="#m9ede9b1a7d" x="120.897116" y="232.990125" style="stroke: #000000; stroke-width: 0.8"/>
      </g>
     </g>
     <g id="text_1">
      <!-- Held et al. (2012) -->
      <g transform="translate(76.245554 247.588563) scale(0.1 -0.1)">
       <defs>
        <path id="DejaVuSerif-2b" d="M 353 0
L 353 331
L 947 331
L 947 4331
L 353 4331
L 353 4666
L 2175 4666
L 2175 4331
L 1581 4331
L 1581 2719
L 4000 2719
L 4000 4331
L 3406 4331
L 3406 4666
L 5228 4666
L 5228 4331
L 4634 4331
L 4634 331
L 5228 331
L 5228 0
L 3406 0
L 3406 331
L 4000 331
L 4000 2338
L 1581 2338
L 1581 331
L 2175 331
L 2175 0
L 353 0
z
" transform="scale(0.015625)"/>
        <path id="DejaVuSerif-48" d="M 3469 1600
L 991 1600
L 991 1575
Q 991 903 1244 561
Q 1497 219 1991 219
Q 2369 219 2611 417
Q 2853 616 2950 1006
L 3413 1006
Q 3275 459 2904 184
Q 2534 -91 1931 -91
Q 1203 -91 761 389
Q 319 869 319 1663
Q 319 2450 753 2931
Q 1188 3413 1894 3413
Q 2647 3413 3050 2948
Q 3453 2484 3469 1600
z
M 2791 1931
Q 2772 2513 2545 2808
Q 2319 3103 1894 3103
Q 1497 3103 1269 2806
Q 1041 2509 991 1931
L 2791 1931
z
" transform="scale(0.015625)"/>
        <path id="DejaVuSerif-4f" d="M 1313 331
L 1856 331
L 1856 0
L 184 0
L 184 331
L 738 331
L 738 4531
L 184 4531
L 184 4863
L 1313 4863
L 1313 331
z
" transform="scale(0.015625)"/>
        <path id="DejaVuSerif-47" d="M 3359 331
L 3909 331
L 3909 0
L 2784 0
L 2784 519
Q 2616 206 2355 57
Q 2094 -91 1709 -91
Q 1097 -91 708 395
Q 319 881 319 1663
Q 319 2444 706 2928
Q 1094 3413 1709 3413
Q 2094 3413 2355 3264
Q 2616 3116 2784 2803
L 2784 4531
L 2241 4531
L 2241 4863
L 3359 4863
L 3359 331
z
M 2784 1497
L 2784 1825
Q 2784 2422 2554 2737
Q 2325 3053 1888 3053
Q 1444 3053 1217 2703
Q 991 2353 991 1663
Q 991 975 1217 622
Q 1444 269 1888 269
Q 2325 269 2554 583
Q 2784 897 2784 1497
z
" transform="scale(0.015625)"/>
        <path id="DejaVuSerif-3" transform="scale(0.015625)"/>
        <path id="DejaVuSerif-57" d="M 691 2988
L 184 2988
L 184 3322
L 691 3322
L 691 4353
L 1269 4353
L 1269 3322
L 2350 3322
L 2350 2988
L 1269 2988
L 1269 878
Q 1269 456 1350 337
Q 1431 219 1650 219
Q 1875 219 1978 351
Q 2081 484 2088 781
L 2522 781
Q 2497 328 2275 118
Q 2053 -91 1600 -91
Q 1103 -91 897 129
Q 691 350 691 878
L 691 2988
z
" transform="scale(0.015625)"/>
        <path id="DejaVuSerif-44" d="M 2547 1044
L 2547 1747
L 1806 1747
Q 1378 1747 1168 1562
Q 959 1378 959 997
Q 959 650 1171 447
Q 1384 244 1747 244
Q 2106 244 2326 466
Q 2547 688 2547 1044
z
M 3122 2075
L 3122 331
L 3634 331
L 3634 0
L 2547 0
L 2547 359
Q 2356 128 2106 18
Q 1856 -91 1522 -91
Q 969 -91 644 203
Q 319 497 319 997
Q 319 1513 691 1797
Q 1063 2081 1741 2081
L 2547 2081
L 2547 2309
Q 2547 2688 2317 2895
Q 2088 3103 1672 3103
Q 1328 3103 1125 2947
Q 922 2791 872 2484
L 575 2484
L 575 3156
Q 875 3284 1158 3348
Q 1441 3413 1709 3413
Q 2400 3413 2761 3070
Q 3122 2728 3122 2075
z
" transform="scale(0.015625)"/>
        <path id="DejaVuSerif-11" d="M 603 325
Q 603 500 722 622
Q 841 744 1019 744
Q 1191 744 1312 622
Q 1434 500 1434 325
Q 1434 153 1312 31
Q 1191 -91 1019 -91
Q 841 -91 722 29
Q 603 150 603 325
z
" transform="scale(0.015625)"/>
        <path id="DejaVuSerif-b" d="M 2041 -997
Q 1281 -656 893 83
Q 506 822 506 1931
Q 506 3044 893 3783
Q 1281 4522 2041 4863
L 2041 4556
Q 1559 4225 1350 3623
Q 1141 3022 1141 1931
Q 1141 844 1350 242
Q 1559 -359 2041 -691
L 2041 -997
z
" transform="scale(0.015625)"/>
        <path id="DejaVuSerif-15" d="M 819 3553
L 469 3553
L 469 4384
Q 803 4563 1142 4656
Q 1481 4750 1806 4750
Q 2534 4750 2956 4397
Q 3378 4044 3378 3438
Q 3378 2753 2422 1800
Q 2347 1728 2309 1691
L 1131 513
L 3078 513
L 3078 1088
L 3444 1088
L 3444 0
L 434 0
L 434 341
L 1850 1753
Q 2319 2222 2519 2614
Q 2719 3006 2719 3438
Q 2719 3909 2473 4175
Q 2228 4441 1797 4441
Q 1350 4441 1106 4219
Q 863 3997 819 3553
z
" transform="scale(0.015625)"/>
        <path id="DejaVuSerif-13" d="M 2034 219
Q 2513 219 2750 744
Q 2988 1269 2988 2328
Q 2988 3391 2750 3916
Q 2513 4441 2034 4441
Q 1556 4441 1318 3916
Q 1081 3391 1081 2328
Q 1081 1269 1318 744
Q 1556 219 2034 219
z
M 2034 -91
Q 1275 -91 848 546
Q 422 1184 422 2328
Q 422 3475 848 4112
Q 1275 4750 2034 4750
Q 2797 4750 3222 4112
Q 3647 3475 3647 2328
Q 3647 1184 3222 546
Q 2797 -91 2034 -91
z
" transform="scale(0.015625)"/>
        <path id="DejaVuSerif-14" d="M 909 0
L 909 331
L 1722 331
L 1722 4213
L 781 3603
L 781 4013
L 1919 4750
L 2350 4750
L 2350 331
L 3163 331
L 3163 0
L 909 0
z
" transform="scale(0.015625)"/>
        <path id="DejaVuSerif-c" d="M 453 -997
L 453 -691
Q 934 -359 1145 242
Q 1356 844 1356 1931
Q 1356 3022 1145 3623
Q 934 4225 453 4556
L 453 4863
Q 1216 4522 1603 3783
Q 1991 3044 1991 1931
Q 1991 822 1603 83
Q 1216 -656 453 -997
z
" transform="scale(0.015625)"/>
       </defs>
       <use xlink:href="#DejaVuSerif-2b"/>
       <use xlink:href="#DejaVuSerif-48" transform="translate(87.203125 0)"/>
       <use xlink:href="#DejaVuSerif-4f" transform="translate(146.390625 0)"/>
       <use xlink:href="#DejaVuSerif-47" transform="translate(178.375 0)"/>
       <use xlink:href="#DejaVuSerif-3" transform="translate(242.390625 0)"/>
       <use xlink:href="#DejaVuSerif-48" transform="translate(274.171875 0)"/>
       <use xlink:href="#DejaVuSerif-57" transform="translate(333.359375 0)"/>
       <use xlink:href="#DejaVuSerif-3" transform="translate(373.546875 0)"/>
       <use xlink:href="#DejaVuSerif-44" transform="translate(405.328125 0)"/>
       <use xlink:href="#DejaVuSerif-4f" transform="translate(464.953125 0)"/>
       <use xlink:href="#DejaVuSerif-11" transform="translate(496.9375 0)"/>
       <use xlink:href="#DejaVuSerif-3" transform="translate(528.71875 0)"/>
       <use xlink:href="#DejaVuSerif-b" transform="translate(560.5 0)"/>
       <use xlink:href="#DejaVuSerif-15" transform="translate(599.515625 0)"/>
       <use xlink:href="#DejaVuSerif-13" transform="translate(663.140625 0)"/>
       <use xlink:href="#DejaVuSerif-14" transform="translate(726.765625 0)"/>
       <use xlink:href="#DejaVuSerif-15" transform="translate(790.390625 0)"/>
       <use xlink:href="#DejaVuSerif-c" transform="translate(854.015625 0)"/>
      </g>
     </g>
    </g>
    <g id="xtick_2">
     <g id="line2d_2">
      <g>
       <use xlink:href="#m9ede9b1a7d" x="267.442571" y="232.990125" style="stroke: #000000; stroke-width: 0.8"/>
      </g>
     </g>
     <g id="text_2">
      <!-- clean provider -->
      <g transform="translate(230.718352 247.588563) scale(0.1 -0.1)">
       <defs>
        <path id="DejaVuSerif-46" d="M 3291 997
Q 3169 466 2822 187
Q 2475 -91 1925 -91
Q 1200 -91 759 389
Q 319 869 319 1663
Q 319 2459 759 2936
Q 1200 3413 1925 3413
Q 2241 3413 2553 3339
Q 2866 3266 3181 3116
L 3181 2266
L 2847 2266
Q 2781 2703 2561 2903
Q 2341 3103 1931 3103
Q 1466 3103 1228 2742
Q 991 2381 991 1663
Q 991 944 1227 581
Q 1463 219 1931 219
Q 2303 219 2525 412
Q 2747 606 2828 997
L 3291 997
z
" transform="scale(0.015625)"/>
        <path id="DejaVuSerif-51" d="M 263 0
L 263 331
L 781 331
L 781 2988
L 231 2988
L 231 3322
L 1356 3322
L 1356 2731
Q 1516 3069 1770 3241
Q 2025 3413 2363 3413
Q 2913 3413 3172 3097
Q 3431 2781 3431 2113
L 3431 331
L 3944 331
L 3944 0
L 2356 0
L 2356 331
L 2853 331
L 2853 1931
Q 2853 2541 2703 2767
Q 2553 2994 2175 2994
Q 1775 2994 1565 2701
Q 1356 2409 1356 1850
L 1356 331
L 1856 331
L 1856 0
L 263 0
z
" transform="scale(0.015625)"/>
        <path id="DejaVuSerif-53" d="M 1313 1825
L 1313 1497
Q 1313 897 1542 583
Q 1772 269 2209 269
Q 2650 269 2876 622
Q 3103 975 3103 1663
Q 3103 2353 2876 2703
Q 2650 3053 2209 3053
Q 1772 3053 1542 2737
Q 1313 2422 1313 1825
z
M 738 2988
L 184 2988
L 184 3322
L 1313 3322
L 1313 2803
Q 1481 3116 1742 3264
Q 2003 3413 2388 3413
Q 3000 3413 3387 2928
Q 3775 2444 3775 1663
Q 3775 881 3387 395
Q 3000 -91 2388 -91
Q 2003 -91 1742 57
Q 1481 206 1313 519
L 1313 -997
L 1856 -997
L 1856 -1331
L 184 -1331
L 184 -997
L 738 -997
L 738 2988
z
" transform="scale(0.015625)"/>
        <path id="DejaVuSerif-55" d="M 3059 3328
L 3059 2497
L 2728 2497
Q 2713 2744 2591 2866
Q 2469 2988 2234 2988
Q 1809 2988 1582 2694
Q 1356 2400 1356 1850
L 1356 331
L 2022 331
L 2022 0
L 263 0
L 263 331
L 781 331
L 781 2994
L 231 2994
L 231 3322
L 1356 3322
L 1356 2731
Q 1525 3078 1790 3245
Q 2056 3413 2438 3413
Q 2578 3413 2733 3391
Q 2888 3369 3059 3328
z
" transform="scale(0.015625)"/>
        <path id="DejaVuSerif-52" d="M 1925 219
Q 2388 219 2623 584
Q 2859 950 2859 1663
Q 2859 2375 2623 2739
Q 2388 3103 1925 3103
Q 1463 3103 1227 2739
Q 991 2375 991 1663
Q 991 950 1228 584
Q 1466 219 1925 219
z
M 1925 -91
Q 1200 -91 759 389
Q 319 869 319 1663
Q 319 2456 758 2934
Q 1197 3413 1925 3413
Q 2653 3413 3092 2934
Q 3531 2456 3531 1663
Q 3531 869 3092 389
Q 2653 -91 1925 -91
z
" transform="scale(0.015625)"/>
        <path id="DejaVuSerif-59" d="M 1581 0
L 359 2988
L -19 2988
L -19 3322
L 1509 3322
L 1509 2988
L 978 2988
L 1913 703
L 2847 2988
L 2350 2988
L 2350 3322
L 3597 3322
L 3597 2988
L 3225 2988
L 2003 0
L 1581 0
z
" transform="scale(0.015625)"/>
        <path id="DejaVuSerif-4c" d="M 622 4353
Q 622 4497 726 4603
Q 831 4709 978 4709
Q 1122 4709 1226 4603
Q 1331 4497 1331 4353
Q 1331 4206 1228 4103
Q 1125 4000 978 4000
Q 831 4000 726 4103
Q 622 4206 622 4353
z
M 1356 331
L 1900 331
L 1900 0
L 231 0
L 231 331
L 781 331
L 781 2988
L 231 2988
L 231 3322
L 1356 3322
L 1356 331
z
" transform="scale(0.015625)"/>
       </defs>
       <use xlink:href="#DejaVuSerif-46"/>
       <use xlink:href="#DejaVuSerif-4f" transform="translate(56 0)"/>
       <use xlink:href="#DejaVuSerif-48" transform="translate(87.984375 0)"/>
       <use xlink:href="#DejaVuSerif-44" transform="translate(147.171875 0)"/>
       <use xlink:href="#DejaVuSerif-51" transform="translate(206.796875 0)"/>
       <use xlink:href="#DejaVuSerif-3" transform="translate(271.203125 0)"/>
       <use xlink:href="#DejaVuSerif-53" transform="translate(302.984375 0)"/>
       <use xlink:href="#DejaVuSerif-55" transform="translate(367 0)"/>
       <use xlink:href="#DejaVuSerif-52" transform="translate(414.796875 0)"/>
       <use xlink:href="#DejaVuSerif-59" transform="translate(475 0)"/>
       <use xlink:href="#DejaVuSerif-4c" transform="translate(531.5 0)"/>
       <use xlink:href="#DejaVuSerif-47" transform="translate(563.484375 0)"/>
       <use xlink:href="#DejaVuSerif-48" transform="translate(627.5 0)"/>
       <use xlink:href="#DejaVuSerif-55" transform="translate(686.6875 0)"/>
      </g>
     </g>
    </g>
   </g>
   <g id="matplotlib.axis_2">
    <g id="ytick_1">
     <g id="line2d_3">
      <path d="M 49.089844 232.990125
L 339.249844 232.990125
" clip-path="url(#p411f8c51b4)" style="fill: none; stroke: #d7d7d7; stroke-width: 0.6; stroke-linecap: square"/>
     </g>
     <g id="line2d_4">
      <defs>
       <path id="mf4541dc44c" d="M 0 0
L -3.5 0
" style="stroke: #000000; stroke-width: 0.8"/>
      </defs>
      <g>
       <use xlink:href="#mf4541dc44c" x="49.089844" y="232.990125" style="stroke: #000000; stroke-width: 0.8"/>
      </g>
     </g>
     <g id="text_3">
      <!-- 760 -->
      <g transform="translate(23.002344 236.788953) scale(0.1 -0.1)">
       <defs>
        <path id="DejaVuSerif-1a" d="M 3609 4347
L 1784 0
L 1319 0
L 3059 4153
L 903 4153
L 903 3578
L 538 3578
L 538 4666
L 3609 4666
L 3609 4347
z
" transform="scale(0.015625)"/>
        <path id="DejaVuSerif-19" d="M 2094 219
Q 2534 219 2771 542
Q 3009 866 3009 1472
Q 3009 2078 2771 2401
Q 2534 2725 2094 2725
Q 1647 2725 1412 2412
Q 1178 2100 1178 1509
Q 1178 888 1415 553
Q 1653 219 2094 219
z
M 1075 2569
Q 1288 2803 1556 2918
Q 1825 3034 2163 3034
Q 2859 3034 3264 2615
Q 3669 2197 3669 1472
Q 3669 763 3233 336
Q 2797 -91 2069 -91
Q 1278 -91 853 498
Q 428 1088 428 2181
Q 428 3406 931 4078
Q 1434 4750 2350 4750
Q 2597 4750 2869 4703
Q 3141 4656 3425 4563
L 3425 3794
L 3072 3794
Q 3034 4109 2831 4275
Q 2628 4441 2284 4441
Q 1678 4441 1381 3981
Q 1084 3522 1075 2569
z
" transform="scale(0.015625)"/>
       </defs>
       <use xlink:href="#DejaVuSerif-1a"/>
       <use xlink:href="#DejaVuSerif-19" transform="translate(63.625 0)"/>
       <use xlink:href="#DejaVuSerif-13" transform="translate(127.25 0)"/>
      </g>
     </g>
    </g>
    <g id="ytick_2">
     <g id="line2d_5">
      <path d="M 49.089844 206.656125
L 339.249844 206.656125
" clip-path="url(#p411f8c51b4)" style="fill: none; stroke: #d7d7d7; stroke-width: 0.6; stroke-linecap: square"/>
     </g>
     <g id="line2d_6">
      <g>
       <use xlink:href="#mf4541dc44c" x="49.089844" y="206.656125" style="stroke: #000000; stroke-width: 0.8"/>
      </g>
     </g>
     <g id="text_4">
      <!-- 765 -->
      <g transform="translate(23.002344 210.454953) scale(0.1 -0.1)">
       <defs>
        <path id="DejaVuSerif-18" d="M 3219 4666
L 3219 4153
L 1081 4153
L 1081 2816
Q 1244 2928 1461 2984
Q 1678 3041 1947 3041
Q 2703 3041 3140 2622
Q 3578 2203 3578 1478
Q 3578 738 3136 323
Q 2694 -91 1894 -91
Q 1572 -91 1234 -12
Q 897 66 544 225
L 544 1131
L 897 1131
Q 925 688 1179 453
Q 1434 219 1894 219
Q 2388 219 2653 544
Q 2919 869 2919 1478
Q 2919 2084 2655 2407
Q 2391 2731 1894 2731
Q 1613 2731 1398 2631
Q 1184 2531 1019 2322
L 750 2322
L 750 4666
L 3219 4666
z
" transform="scale(0.015625)"/>
       </defs>
       <use xlink:href="#DejaVuSerif-1a"/>
       <use xlink:href="#DejaVuSerif-19" transform="translate(63.625 0)"/>
       <use xlink:href="#DejaVuSerif-18" transform="translate(127.25 0)"/>
      </g>
     </g>
    </g>
    <g id="ytick_3">
     <g id="line2d_7">
      <path d="M 49.089844 180.322125
L 339.249844 180.322125
" clip-path="url(#p411f8c51b4)" style="fill: none; stroke: #d7d7d7; stroke-width: 0.6; stroke-linecap: square"/>
     </g>
     <g id="line2d_8">
      <g>
       <use xlink:href="#mf4541dc44c" x="49.089844" y="180.322125" style="stroke: #000000; stroke-width: 0.8"/>
      </g>
     </g>
     <g id="text_5">
      <!-- 770 -->
      <g transform="translate(23.002344 184.120953) scale(0.1 -0.1)">
       <use xlink:href="#DejaVuSerif-1a"/>
       <use xlink:href="#DejaVuSerif-1a" transform="translate(63.625 0)"/>
       <use xlink:href="#DejaVuSerif-13" transform="translate(127.25 0)"/>
      </g>
     </g>
    </g>
    <g id="ytick_4">
     <g id="line2d_9">
      <path d="M 49.089844 153.988125
L 339.249844 153.988125
" clip-path="url(#p411f8c51b4)" style="fill: none; stroke: #d7d7d7; stroke-width: 0.6; stroke-linecap: square"/>
     </g>
     <g id="line2d_10">
      <g>
       <use xlink:href="#mf4541dc44c" x="49.089844" y="153.988125" style="stroke: #000000; stroke-width: 0.8"/>
      </g>
     </g>
     <g id="text_6">
      <!-- 775 -->
      <g transform="translate(23.002344 157.786953) scale(0.1 -0.1)">
       <use xlink:href="#DejaVuSerif-1a"/>
       <use xlink:href="#DejaVuSerif-1a" transform="translate(63.625 0)"/>
       <use xlink:href="#DejaVuSerif-18" transform="translate(127.25 0)"/>
      </g>
     </g>
    </g>
    <g id="ytick_5">
     <g id="line2d_11">
      <path d="M 49.089844 127.654125
L 339.249844 127.654125
" clip-path="url(#p411f8c51b4)" style="fill: none; stroke: #d7d7d7; stroke-width: 0.6; stroke-linecap: square"/>
     </g>
     <g id="line2d_12">
      <g>
       <use xlink:href="#mf4541dc44c" x="49.089844" y="127.654125" style="stroke: #000000; stroke-width: 0.8"/>
      </g>
     </g>
     <g id="text_7">
      <!-- 780 -->
      <g transform="translate(23.002344 131.452953) scale(0.1 -0.1)">
       <defs>
        <path id="DejaVuSerif-1b" d="M 2981 1275
Q 2981 1775 2732 2051
Q 2484 2328 2034 2328
Q 1584 2328 1336 2051
Q 1088 1775 1088 1275
Q 1088 772 1336 495
Q 1584 219 2034 219
Q 2484 219 2732 495
Q 2981 772 2981 1275
z
M 2853 3541
Q 2853 3966 2637 4203
Q 2422 4441 2034 4441
Q 1650 4441 1433 4203
Q 1216 3966 1216 3541
Q 1216 3113 1433 2875
Q 1650 2638 2034 2638
Q 2422 2638 2637 2875
Q 2853 3113 2853 3541
z
M 2516 2484
Q 3047 2413 3344 2092
Q 3641 1772 3641 1275
Q 3641 619 3225 264
Q 2809 -91 2034 -91
Q 1263 -91 845 264
Q 428 619 428 1275
Q 428 1772 725 2092
Q 1022 2413 1556 2484
Q 1084 2569 832 2842
Q 581 3116 581 3541
Q 581 4103 968 4426
Q 1356 4750 2034 4750
Q 2713 4750 3100 4426
Q 3488 4103 3488 3541
Q 3488 3116 3236 2842
Q 2984 2569 2516 2484
z
" transform="scale(0.015625)"/>
       </defs>
       <use xlink:href="#DejaVuSerif-1a"/>
       <use xlink:href="#DejaVuSerif-1b" transform="translate(63.625 0)"/>
       <use xlink:href="#DejaVuSerif-13" transform="translate(127.25 0)"/>
      </g>
     </g>
    </g>
    <g id="ytick_6">
     <g id="line2d_13">
      <path d="M 49.089844 101.320125
L 339.249844 101.320125
" clip-path="url(#p411f8c51b4)" style="fill: none; stroke: #d7d7d7; stroke-width: 0.6; stroke-linecap: square"/>
     </g>
     <g id="line2d_14">
      <g>
       <use xlink:href="#mf4541dc44c" x="49.089844" y="101.320125" style="stroke: #000000; stroke-width: 0.8"/>
      </g>
     </g>
     <g id="text_8">
      <!-- 785 -->
      <g transform="translate(23.002344 105.118953) scale(0.1 -0.1)">
       <use xlink:href="#DejaVuSerif-1a"/>
       <use xlink:href="#DejaVuSerif-1b" transform="translate(63.625 0)"/>
       <use xlink:href="#DejaVuSerif-18" transform="translate(127.25 0)"/>
      </g>
     </g>
    </g>
    <g id="ytick_7">
     <g id="line2d_15">
      <path d="M 49.089844 74.986125
L 339.249844 74.986125
" clip-path="url(#p411f8c51b4)" style="fill: none; stroke: #d7d7d7; stroke-width: 0.6; stroke-linecap: square"/>
     </g>
     <g id="line2d_16">
      <g>
       <use xlink:href="#mf4541dc44c" x="49.089844" y="74.986125" style="stroke: #000000; stroke-width: 0.8"/>
      </g>
     </g>
     <g id="text_9">
      <!-- 790 -->
      <g transform="translate(23.002344 78.784953) scale(0.1 -0.1)">
       <defs>
        <path id="DejaVuSerif-1c" d="M 2994 2091
Q 2784 1856 2512 1740
Q 2241 1625 1900 1625
Q 1206 1625 804 2044
Q 403 2463 403 3188
Q 403 3897 839 4323
Q 1275 4750 2003 4750
Q 2794 4750 3217 4161
Q 3641 3572 3641 2478
Q 3641 1253 3137 581
Q 2634 -91 1722 -91
Q 1475 -91 1203 -44
Q 931 3 647 97
L 647 872
L 997 872
Q 1038 556 1241 387
Q 1444 219 1784 219
Q 2391 219 2687 676
Q 2984 1134 2994 2091
z
M 1978 4441
Q 1534 4441 1298 4117
Q 1063 3794 1063 3188
Q 1063 2581 1298 2256
Q 1534 1931 1978 1931
Q 2422 1931 2658 2245
Q 2894 2559 2894 3150
Q 2894 3772 2656 4106
Q 2419 4441 1978 4441
z
" transform="scale(0.015625)"/>
       </defs>
       <use xlink:href="#DejaVuSerif-1a"/>
       <use xlink:href="#DejaVuSerif-1c" transform="translate(63.625 0)"/>
       <use xlink:href="#DejaVuSerif-13" transform="translate(127.25 0)"/>
      </g>
     </g>
    </g>
    <g id="ytick_8">
     <g id="line2d_17">
      <path d="M 49.089844 48.652125
L 339.249844 48.652125
" clip-path="url(#p411f8c51b4)" style="fill: none; stroke: #d7d7d7; stroke-width: 0.6; stroke-linecap: square"/>
     </g>
     <g id="line2d_18">
      <g>
       <use xlink:href="#mf4541dc44c" x="49.089844" y="48.652125" style="stroke: #000000; stroke-width: 0.8"/>
      </g>
     </g>
     <g id="text_10">
      <!-- 795 -->
      <g transform="translate(23.002344 52.450953) scale(0.1 -0.1)">
       <use xlink:href="#DejaVuSerif-1a"/>
       <use xlink:href="#DejaVuSerif-1c" transform="translate(63.625 0)"/>
       <use xlink:href="#DejaVuSerif-18" transform="translate(127.25 0)"/>
      </g>
     </g>
    </g>
    <g id="ytick_9">
     <g id="line2d_19">
      <path d="M 49.089844 22.318125
L 339.249844 22.318125
" clip-path="url(#p411f8c51b4)" style="fill: none; stroke: #d7d7d7; stroke-width: 0.6; stroke-linecap: square"/>
     </g>
     <g id="line2d_20">
      <g>
       <use xlink:href="#mf4541dc44c" x="49.089844" y="22.318125" style="stroke: #000000; stroke-width: 0.8"/>
      </g>
     </g>
     <g id="text_11">
      <!-- 800 -->
      <g transform="translate(23.002344 26.116953) scale(0.1 -0.1)">
       <use xlink:href="#DejaVuSerif-1b"/>
       <use xlink:href="#DejaVuSerif-13" transform="translate(63.625 0)"/>
       <use xlink:href="#DejaVuSerif-13" transform="translate(127.25 0)"/>
      </g>
     </g>
    </g>
    <g id="text_12">
     <!-- Liquid density, $\rho$ / kg m$^{-3}$ -->
     <g transform="translate(16.6 192.254125) rotate(-90) scale(0.1 -0.1)">
      <defs>
       <path id="DejaVuSerif-2f" d="M 353 0
L 353 331
L 947 331
L 947 4331
L 353 4331
L 353 4666
L 2175 4666
L 2175 4331
L 1581 4331
L 1581 384
L 3713 384
L 3713 1166
L 4097 1166
L 4097 0
L 353 0
z
" transform="scale(0.015625)"/>
       <path id="DejaVuSerif-54" d="M 3359 2988
L 3359 -997
L 3909 -997
L 3909 -1331
L 2241 -1331
L 2241 -997
L 2784 -997
L 2784 519
Q 2616 206 2355 57
Q 2094 -91 1709 -91
Q 1097 -91 708 395
Q 319 881 319 1663
Q 319 2444 706 2928
Q 1094 3413 1709 3413
Q 2094 3413 2355 3264
Q 2616 3116 2784 2803
L 2784 3322
L 3909 3322
L 3909 2988
L 3359 2988
z
M 2784 1825
Q 2784 2422 2554 2737
Q 2325 3053 1888 3053
Q 1444 3053 1217 2703
Q 991 2353 991 1663
Q 991 975 1217 622
Q 1444 269 1888 269
Q 2325 269 2554 583
Q 2784 897 2784 1497
L 2784 1825
z
" transform="scale(0.015625)"/>
       <path id="DejaVuSerif-58" d="M 2266 3322
L 3341 3322
L 3341 331
L 3884 331
L 3884 0
L 2766 0
L 2766 588
Q 2606 256 2353 82
Q 2100 -91 1766 -91
Q 1213 -91 952 223
Q 691 538 691 1209
L 691 2988
L 172 2988
L 172 3322
L 1269 3322
L 1269 1388
Q 1269 781 1417 556
Q 1566 331 1947 331
Q 2347 331 2556 625
Q 2766 919 2766 1478
L 2766 2988
L 2266 2988
L 2266 3322
z
" transform="scale(0.015625)"/>
       <path id="DejaVuSerif-56" d="M 359 184
L 359 959
L 691 959
Q 703 588 923 403
Q 1144 219 1575 219
Q 1963 219 2166 364
Q 2369 509 2369 788
Q 2369 1006 2220 1140
Q 2072 1275 1594 1428
L 1178 1569
Q 750 1706 558 1912
Q 366 2119 366 2438
Q 366 2894 700 3153
Q 1034 3413 1625 3413
Q 1888 3413 2178 3344
Q 2469 3275 2778 3144
L 2778 2419
L 2447 2419
Q 2434 2741 2221 2922
Q 2009 3103 1644 3103
Q 1281 3103 1095 2975
Q 909 2847 909 2591
Q 909 2381 1050 2254
Q 1191 2128 1613 1997
L 2069 1856
Q 2541 1709 2748 1489
Q 2956 1269 2956 922
Q 2956 450 2595 179
Q 2234 -91 1600 -91
Q 1278 -91 972 -22
Q 666 47 359 184
z
" transform="scale(0.015625)"/>
       <path id="DejaVuSerif-5c" d="M 1381 -609
L 1600 -56
L 359 2988
L -19 2988
L -19 3322
L 1509 3322
L 1509 2988
L 978 2988
L 1913 703
L 2847 2988
L 2350 2988
L 2350 3322
L 3597 3322
L 3597 2988
L 3225 2988
L 1703 -750
Q 1547 -1138 1356 -1280
Q 1166 -1422 819 -1422
Q 672 -1422 517 -1397
Q 363 -1372 206 -1325
L 206 -691
L 500 -691
Q 519 -903 608 -995
Q 697 -1088 884 -1088
Q 1056 -1088 1161 -992
Q 1266 -897 1381 -609
z
" transform="scale(0.015625)"/>
       <path id="DejaVuSerif-f" d="M 231 -622
Q 525 -406 662 -114
Q 800 178 800 594
L 800 709
L 1416 709
Q 1391 175 1164 -208
Q 938 -591 481 -872
L 231 -622
z
" transform="scale(0.015625)"/>
       <path id="DejaVuSans-Oblique-355" d="M 1203 2875
Q 1453 3194 1981 3475
Q 2188 3584 2756 3584
Q 3394 3584 3694 3078
Q 3994 2572 3834 1747
Q 3672 922 3175 415
Q 2678 -91 2041 -91
Q 1656 -91 1409 63
Q 1163 213 1044 525
L 681 -1331
L 103 -1331
L 697 1716
Q 838 2438 1203 2875
z
M 3238 1747
Q 3359 2381 3169 2744
Q 2978 3103 2522 3103
Q 2066 3103 1734 2744
Q 1403 2381 1281 1747
Q 1156 1113 1347 750
Q 1538 391 1994 391
Q 2450 391 2781 750
Q 3113 1113 3238 1747
z
" transform="scale(0.015625)"/>
       <path id="DejaVuSerif-12" d="M 1656 4666
L 2156 4666
L 500 -594
L 0 -594
L 1656 4666
z
" transform="scale(0.015625)"/>
       <path id="DejaVuSerif-4e" d="M 1831 0
L 219 0
L 219 331
L 738 331
L 738 4531
L 184 4531
L 184 4863
L 1313 4863
L 1313 1697
L 2713 2988
L 2234 2988
L 2234 3322
L 3738 3322
L 3738 2988
L 3169 2988
L 2181 2075
L 3444 331
L 3922 331
L 3922 0
L 2284 0
L 2284 331
L 2759 331
L 1766 1697
L 1313 1275
L 1313 331
L 1831 331
L 1831 0
z
" transform="scale(0.015625)"/>
       <path id="DejaVuSerif-4a" d="M 3359 2988
L 3359 72
Q 3359 -644 2965 -1033
Q 2572 -1422 1844 -1422
Q 1516 -1422 1216 -1362
Q 916 -1303 641 -1184
L 641 -488
L 941 -488
Q 997 -813 1206 -963
Q 1416 -1113 1806 -1113
Q 2313 -1113 2548 -827
Q 2784 -541 2784 72
L 2784 519
Q 2616 206 2355 57
Q 2094 -91 1709 -91
Q 1097 -91 708 395
Q 319 881 319 1663
Q 319 2444 706 2928
Q 1094 3413 1709 3413
Q 2094 3413 2355 3264
Q 2616 3116 2784 2803
L 2784 3322
L 3909 3322
L 3909 2988
L 3359 2988
z
M 2784 1825
Q 2784 2422 2554 2737
Q 2325 3053 1888 3053
Q 1444 3053 1217 2703
Q 991 2353 991 1663
Q 991 975 1217 622
Q 1444 269 1888 269
Q 2325 269 2554 583
Q 2784 897 2784 1497
L 2784 1825
z
" transform="scale(0.015625)"/>
       <path id="DejaVuSerif-50" d="M 3316 2675
Q 3481 3041 3739 3227
Q 3997 3413 4341 3413
Q 4863 3413 5119 3089
Q 5375 2766 5375 2113
L 5375 331
L 5894 331
L 5894 0
L 4300 0
L 4300 331
L 4800 331
L 4800 2047
Q 4800 2556 4650 2772
Q 4500 2988 4153 2988
Q 3769 2988 3567 2697
Q 3366 2406 3366 1850
L 3366 331
L 3866 331
L 3866 0
L 2291 0
L 2291 331
L 2791 331
L 2791 2069
Q 2791 2566 2641 2777
Q 2491 2988 2144 2988
Q 1759 2988 1557 2697
Q 1356 2406 1356 1850
L 1356 331
L 1856 331
L 1856 0
L 263 0
L 263 331
L 781 331
L 781 2994
L 231 2994
L 231 3322
L 1356 3322
L 1356 2731
Q 1516 3063 1762 3238
Q 2009 3413 2322 3413
Q 2709 3413 2968 3220
Q 3228 3028 3316 2675
z
" transform="scale(0.015625)"/>
       <path id="DejaVuSans-c9c" d="M 678 2272
L 4684 2272
L 4684 1741
L 678 1741
L 678 2272
z
" transform="scale(0.015625)"/>
       <path id="DejaVuSans-16" d="M 2597 2516
Q 3050 2419 3304 2112
Q 3559 1806 3559 1356
Q 3559 666 3084 287
Q 2609 -91 1734 -91
Q 1441 -91 1130 -33
Q 819 25 488 141
L 488 750
Q 750 597 1062 519
Q 1375 441 1716 441
Q 2309 441 2620 675
Q 2931 909 2931 1356
Q 2931 1769 2642 2001
Q 2353 2234 1838 2234
L 1294 2234
L 1294 2753
L 1863 2753
Q 2328 2753 2575 2939
Q 2822 3125 2822 3475
Q 2822 3834 2567 4026
Q 2313 4219 1838 4219
Q 1578 4219 1281 4162
Q 984 4106 628 3988
L 628 4550
Q 988 4650 1302 4700
Q 1616 4750 1894 4750
Q 2613 4750 3031 4423
Q 3450 4097 3450 3541
Q 3450 3153 3228 2886
Q 3006 2619 2597 2516
z
" transform="scale(0.015625)"/>
      </defs>
      <use xlink:href="#DejaVuSerif-2f" transform="translate(0 0.746875)"/>
      <use xlink:href="#DejaVuSerif-4c" transform="translate(66.40625 0.746875)"/>
      <use xlink:href="#DejaVuSerif-54" transform="translate(98.388672 0.746875)"/>
      <use xlink:href="#DejaVuSerif-58" transform="translate(162.402344 0.746875)"/>
      <use xlink:href="#DejaVuSerif-4c" transform="translate(226.806641 0.746875)"/>
      <use xlink:href="#DejaVuSerif-47" transform="translate(258.789062 0.746875)"/>
      <use xlink:href="#DejaVuSerif-3" transform="translate(322.802734 0.746875)"/>
      <use xlink:href="#DejaVuSerif-47" transform="translate(354.589844 0.746875)"/>
      <use xlink:href="#DejaVuSerif-48" transform="translate(418.603516 0.746875)"/>
      <use xlink:href="#DejaVuSerif-51" transform="translate(477.783203 0.746875)"/>
      <use xlink:href="#DejaVuSerif-56" transform="translate(542.1875 0.746875)"/>
      <use xlink:href="#DejaVuSerif-4c" transform="translate(593.505859 0.746875)"/>
      <use xlink:href="#DejaVuSerif-57" transform="translate(625.488281 0.746875)"/>
      <use xlink:href="#DejaVuSerif-5c" transform="translate(665.673828 0.746875)"/>
      <use xlink:href="#DejaVuSerif-f" transform="translate(709.167969 0.746875)"/>
      <use xlink:href="#DejaVuSerif-3" transform="translate(740.955078 0.746875)"/>
      <use xlink:href="#DejaVuSans-Oblique-355" transform="translate(772.742188 0.746875)"/>
      <use xlink:href="#DejaVuSerif-3" transform="translate(836.21875 0.746875)"/>
      <use xlink:href="#DejaVuSerif-12" transform="translate(868.005859 0.746875)"/>
      <use xlink:href="#DejaVuSerif-3" transform="translate(901.697266 0.746875)"/>
      <use xlink:href="#DejaVuSerif-4e" transform="translate(933.484375 0.746875)"/>
      <use xlink:href="#DejaVuSerif-4a" transform="translate(994.080078 0.746875)"/>
      <use xlink:href="#DejaVuSerif-3" transform="translate(1058.09375 0.746875)"/>
      <use xlink:href="#DejaVuSerif-50" transform="translate(1089.880859 0.746875)"/>
      <use xlink:href="#DejaVuSans-c9c" transform="translate(1185.662109 42.046875) scale(0.7)"/>
      <use xlink:href="#DejaVuSans-16" transform="translate(1244.314453 42.046875) scale(0.7)"/>
     </g>
    </g>
   </g>
   <g id="patch_5">
    <path d="M 49.089844 232.990125
L 49.089844 22.318125
" style="fill: none; stroke: #000000; stroke-width: 0.8; stroke-linejoin: miter; stroke-linecap: square"/>
   </g>
   <g id="patch_6">
    <path d="M 49.089844 232.990125
L 339.249844 232.990125
" style="fill: none; stroke: #000000; stroke-width: 0.8; stroke-linejoin: miter; stroke-linecap: square"/>
   </g>
   <g id="text_13">
    <!-- Pure ethanol at 298.15 K and ambient pressure -->
    <g transform="translate(33.998906 16.318125) scale(0.12 -0.12)">
     <defs>
      <path id="DejaVuSerif-Bold-33" d="M 300 0
L 300 378
L 897 378
L 897 4288
L 300 4288
L 300 4666
L 2956 4666
Q 3734 4666 4193 4295
Q 4653 3925 4653 3303
Q 4653 2678 4192 2304
Q 3731 1931 2956 1931
L 2100 1931
L 2100 378
L 2853 378
L 2853 0
L 300 0
z
M 2100 2309
L 2450 2309
Q 2856 2309 3098 2579
Q 3341 2850 3341 3303
Q 3341 3753 3100 4020
Q 2859 4288 2450 4288
L 2100 4288
L 2100 2309
z
" transform="scale(0.015625)"/>
      <path id="DejaVuSerif-Bold-58" d="M 3963 3322
L 3963 378
L 4434 378
L 4434 0
L 2853 0
L 2853 469
Q 2656 172 2400 40
Q 2144 -91 1753 -91
Q 1194 -91 908 239
Q 622 569 622 1209
L 622 2944
L 147 2944
L 147 3322
L 1728 3322
L 1728 1381
Q 1728 763 1831 595
Q 1934 428 2209 428
Q 2544 428 2698 675
Q 2853 922 2853 1459
L 2853 2944
L 2450 2944
L 2450 3322
L 3963 3322
z
" transform="scale(0.015625)"/>
      <path id="DejaVuSerif-Bold-55" d="M 3438 3359
L 3438 2369
L 3084 2369
Q 3066 2634 2941 2764
Q 2816 2894 2578 2894
Q 2216 2894 2006 2575
Q 1797 2256 1797 1691
L 1797 378
L 2400 378
L 2400 0
L 219 0
L 219 378
L 691 378
L 691 2944
L 184 2944
L 184 3322
L 1797 3322
L 1797 2731
Q 1959 3078 2226 3245
Q 2494 3413 2881 3413
Q 2978 3413 3117 3398
Q 3256 3384 3438 3359
z
" transform="scale(0.015625)"/>
      <path id="DejaVuSerif-Bold-48" d="M 2566 1875
Q 2566 2531 2444 2795
Q 2322 3059 2028 3059
Q 1744 3059 1620 2800
Q 1497 2541 1497 1931
L 1497 1875
L 2566 1875
z
M 3781 1503
L 1497 1503
L 1497 1478
Q 1497 834 1690 548
Q 1884 263 2316 263
Q 2675 263 2897 453
Q 3119 644 3181 1006
L 3700 1006
Q 3566 441 3166 175
Q 2766 -91 2047 -91
Q 1184 -91 723 364
Q 263 819 263 1663
Q 263 2488 734 2950
Q 1206 3413 2047 3413
Q 2872 3413 3312 2927
Q 3753 2441 3781 1503
z
" transform="scale(0.015625)"/>
      <path id="DejaVuSerif-Bold-3" transform="scale(0.015625)"/>
      <path id="DejaVuSerif-Bold-57" d="M 634 2944
L 153 2944
L 153 3322
L 634 3322
L 634 4353
L 1741 4353
L 1741 3322
L 2663 3322
L 2663 2944
L 1741 2944
L 1741 909
Q 1741 475 1809 369
Q 1878 263 2059 263
Q 2259 263 2356 397
Q 2453 531 2459 813
L 2925 813
Q 2897 313 2651 111
Q 2406 -91 1806 -91
Q 1122 -91 878 123
Q 634 338 634 909
L 634 2944
z
" transform="scale(0.015625)"/>
      <path id="DejaVuSerif-Bold-4b" d="M 219 0
L 219 378
L 691 378
L 691 4488
L 197 4488
L 197 4863
L 1797 4863
L 1797 2853
Q 1997 3150 2253 3281
Q 2509 3413 2900 3413
Q 3459 3413 3745 3083
Q 4031 2753 4031 2113
L 4031 378
L 4506 378
L 4506 0
L 2522 0
L 2522 378
L 2925 378
L 2925 2144
Q 2925 2566 2817 2730
Q 2709 2894 2444 2894
Q 2109 2894 1953 2648
Q 1797 2403 1797 1869
L 1797 378
L 2203 378
L 2203 0
L 219 0
z
" transform="scale(0.015625)"/>
      <path id="DejaVuSerif-Bold-44" d="M 3525 2041
L 3525 378
L 4000 378
L 4000 0
L 2419 0
L 2419 422
Q 2200 159 1931 34
Q 1663 -91 1319 -91
Q 809 -91 536 182
Q 263 456 263 966
Q 263 1525 655 1803
Q 1047 2081 1838 2081
L 2419 2081
L 2419 2278
Q 2419 2681 2228 2873
Q 2038 3066 1638 3066
Q 1306 3066 1126 2930
Q 947 2794 872 2484
L 519 2484
L 519 3200
Q 816 3306 1134 3359
Q 1453 3413 1806 3413
Q 2697 3413 3111 3081
Q 3525 2750 3525 2041
z
M 2419 1044
L 2419 1709
L 2003 1709
Q 1694 1709 1528 1540
Q 1363 1372 1363 1056
Q 1363 741 1483 584
Q 1603 428 1850 428
Q 2106 428 2262 597
Q 2419 766 2419 1044
z
" transform="scale(0.015625)"/>
      <path id="DejaVuSerif-Bold-51" d="M 219 0
L 219 378
L 691 378
L 691 2944
L 219 2944
L 219 3322
L 1797 3322
L 1797 2853
Q 1997 3150 2253 3281
Q 2509 3413 2900 3413
Q 3459 3413 3745 3083
Q 4031 2753 4031 2113
L 4031 378
L 4506 378
L 4506 0
L 2522 0
L 2522 378
L 2925 378
L 2925 2144
Q 2925 2566 2817 2730
Q 2709 2894 2444 2894
Q 2109 2894 1953 2648
Q 1797 2403 1797 1869
L 1797 378
L 2203 378
L 2203 0
L 219 0
z
" transform="scale(0.015625)"/>
      <path id="DejaVuSerif-Bold-52" d="M 2138 263
Q 2488 263 2630 563
Q 2772 863 2772 1663
Q 2772 2463 2631 2761
Q 2491 3059 2138 3059
Q 1784 3059 1640 2757
Q 1497 2456 1497 1663
Q 1497 869 1640 566
Q 1784 263 2138 263
z
M 2138 -91
Q 1259 -91 761 376
Q 263 844 263 1663
Q 263 2484 761 2948
Q 1259 3413 2138 3413
Q 3019 3413 3516 2948
Q 4013 2484 4013 1663
Q 4013 844 3514 376
Q 3016 -91 2138 -91
z
" transform="scale(0.015625)"/>
      <path id="DejaVuSerif-Bold-4f" d="M 1797 378
L 2272 378
L 2272 0
L 219 0
L 219 378
L 691 378
L 691 4488
L 219 4488
L 219 4863
L 1797 4863
L 1797 378
z
" transform="scale(0.015625)"/>
      <path id="DejaVuSerif-Bold-15" d="M 844 3513
L 469 3513
L 469 4519
Q 850 4634 1223 4692
Q 1597 4750 1978 4750
Q 2869 4750 3367 4386
Q 3866 4022 3866 3372
Q 3866 2909 3591 2542
Q 3316 2175 2541 1672
L 1241 819
L 3450 819
L 3450 1369
L 3878 1369
L 3878 0
L 428 0
L 428 763
L 1119 1241
Q 2003 1850 2297 2278
Q 2591 2706 2591 3278
Q 2591 3819 2367 4101
Q 2144 4384 1716 4384
Q 1347 4384 1125 4161
Q 903 3938 844 3513
z
" transform="scale(0.015625)"/>
      <path id="DejaVuSerif-Bold-1c" d="M 2181 4384
Q 1859 4384 1723 4111
Q 1588 3838 1588 3163
Q 1588 2488 1723 2214
Q 1859 1941 2181 1941
Q 2503 1941 2640 2214
Q 2778 2488 2778 3163
Q 2778 3838 2640 4111
Q 2503 4384 2181 4384
z
M 2878 1900
Q 2672 1734 2420 1651
Q 2169 1569 1875 1569
Q 1163 1569 755 1986
Q 347 2403 347 3138
Q 347 3913 803 4331
Q 1259 4750 2106 4750
Q 3063 4750 3556 4172
Q 4050 3594 4050 2478
Q 4050 1206 3503 557
Q 2956 -91 1881 -91
Q 1600 -91 1278 -44
Q 956 3 588 97
L 588 922
L 966 922
Q 1044 603 1261 439
Q 1478 275 1825 275
Q 2375 275 2625 658
Q 2875 1041 2878 1900
z
" transform="scale(0.015625)"/>
      <path id="DejaVuSerif-Bold-1b" d="M 2975 2484
Q 3531 2394 3820 2075
Q 4109 1756 4109 1241
Q 4109 597 3623 253
Q 3138 -91 2222 -91
Q 1306 -91 818 253
Q 331 597 331 1241
Q 331 1756 622 2075
Q 913 2394 1466 2484
Q 975 2597 731 2861
Q 488 3125 488 3531
Q 488 4125 931 4437
Q 1375 4750 2222 4750
Q 3066 4750 3511 4437
Q 3956 4125 3956 3531
Q 3956 3125 3711 2861
Q 3466 2597 2975 2484
z
M 2747 3519
Q 2747 4013 2628 4198
Q 2509 4384 2222 4384
Q 1931 4384 1814 4198
Q 1697 4013 1697 3519
Q 1697 3028 1814 2845
Q 1931 2663 2222 2663
Q 2513 2663 2630 2845
Q 2747 3028 2747 3519
z
M 2869 1294
Q 2869 1866 2723 2081
Q 2578 2297 2222 2297
Q 1863 2297 1719 2081
Q 1575 1866 1575 1294
Q 1575 716 1720 495
Q 1866 275 2222 275
Q 2575 275 2722 495
Q 2869 716 2869 1294
z
" transform="scale(0.015625)"/>
      <path id="DejaVuSerif-Bold-11" d="M 519 506
Q 519 750 694 925
Q 869 1100 1113 1100
Q 1359 1100 1534 925
Q 1709 750 1709 506
Q 1709 259 1534 84
Q 1359 -91 1113 -91
Q 869 -91 694 84
Q 519 259 519 506
z
" transform="scale(0.015625)"/>
      <path id="DejaVuSerif-Bold-14" d="M 878 0
L 878 378
L 1753 378
L 1753 4153
L 781 3578
L 781 4044
L 1953 4750
L 2938 4750
L 2938 378
L 3816 378
L 3816 0
L 878 0
z
" transform="scale(0.015625)"/>
      <path id="DejaVuSerif-Bold-18" d="M 3609 4666
L 3609 3847
L 1113 3847
L 1113 2822
Q 1319 2981 1572 3062
Q 1825 3144 2106 3144
Q 2969 3144 3469 2708
Q 3969 2272 3969 1522
Q 3969 759 3469 334
Q 2969 -91 2069 -91
Q 1688 -91 1311 -28
Q 934 34 525 166
L 525 1184
L 900 1184
Q 919 725 1139 500
Q 1359 275 1791 275
Q 2250 275 2472 583
Q 2694 891 2694 1522
Q 2694 2144 2476 2451
Q 2259 2759 1819 2759
Q 1581 2759 1395 2661
Q 1209 2563 1050 2356
L 738 2356
L 738 4666
L 3609 4666
z
" transform="scale(0.015625)"/>
      <path id="DejaVuSerif-Bold-2e" d="M 300 0
L 300 378
L 897 378
L 897 4288
L 300 4288
L 300 4666
L 2700 4666
L 2700 4288
L 2100 4288
L 2100 2584
L 4078 4288
L 3578 4288
L 3578 4666
L 5319 4666
L 5319 4288
L 4697 4288
L 3022 2847
L 5300 378
L 5759 378
L 5759 0
L 4178 0
L 2100 2266
L 2100 378
L 2700 378
L 2700 0
L 300 0
z
" transform="scale(0.015625)"/>
      <path id="DejaVuSerif-Bold-47" d="M 2747 1497
L 2747 1825
Q 2747 2406 2597 2665
Q 2447 2925 2119 2925
Q 1775 2925 1636 2651
Q 1497 2378 1497 1663
Q 1497 947 1637 672
Q 1778 397 2119 397
Q 2447 397 2597 656
Q 2747 916 2747 1497
z
M 3853 378
L 4325 378
L 4325 0
L 2747 0
L 2747 422
Q 2606 163 2367 36
Q 2128 -91 1778 -91
Q 1072 -91 667 378
Q 263 847 263 1663
Q 263 2481 667 2947
Q 1072 3413 1778 3413
Q 2128 3413 2367 3286
Q 2606 3159 2747 2900
L 2747 4488
L 2272 4488
L 2272 4863
L 3853 4863
L 3853 378
z
" transform="scale(0.015625)"/>
      <path id="DejaVuSerif-Bold-50" d="M 3884 2778
Q 4116 3109 4384 3261
Q 4653 3413 5013 3413
Q 5584 3413 5867 3089
Q 6150 2766 6150 2113
L 6150 378
L 6625 378
L 6625 0
L 4647 0
L 4647 378
L 5044 378
L 5044 1947
Q 5044 2569 4948 2731
Q 4853 2894 4594 2894
Q 4300 2894 4137 2667
Q 3975 2441 3975 2022
L 3975 378
L 4372 378
L 4372 0
L 2472 0
L 2472 378
L 2869 378
L 2869 1947
Q 2869 2569 2772 2731
Q 2675 2894 2419 2894
Q 2122 2894 1959 2667
Q 1797 2441 1797 2022
L 1797 378
L 2194 378
L 2194 0
L 219 0
L 219 378
L 691 378
L 691 2944
L 219 2944
L 219 3322
L 1797 3322
L 1797 2853
Q 1991 3144 2241 3278
Q 2491 3413 2834 3413
Q 3241 3413 3494 3258
Q 3747 3103 3884 2778
z
" transform="scale(0.015625)"/>
      <path id="DejaVuSerif-Bold-45" d="M 622 378
L 622 4488
L 147 4488
L 147 4863
L 1728 4863
L 1728 2900
Q 1869 3159 2106 3286
Q 2344 3413 2694 3413
Q 3403 3413 3811 2945
Q 4219 2478 4219 1663
Q 4219 847 3811 378
Q 3403 -91 2694 -91
Q 2344 -91 2106 36
Q 1869 163 1728 422
L 1728 0
L 147 0
L 147 378
L 622 378
z
M 1728 1497
Q 1728 916 1876 656
Q 2025 397 2356 397
Q 2697 397 2836 672
Q 2975 947 2975 1663
Q 2975 2378 2836 2651
Q 2697 2925 2356 2925
Q 2025 2925 1876 2665
Q 1728 2406 1728 1825
L 1728 1497
z
" transform="scale(0.015625)"/>
      <path id="DejaVuSerif-Bold-4c" d="M 588 4263
Q 588 4516 763 4689
Q 938 4863 1191 4863
Q 1438 4863 1611 4689
Q 1784 4516 1784 4263
Q 1784 4016 1611 3842
Q 1438 3669 1191 3669
Q 938 3669 763 3841
Q 588 4013 588 4263
z
M 1797 378
L 2272 378
L 2272 0
L 219 0
L 219 378
L 691 378
L 691 2944
L 219 2944
L 219 3322
L 1797 3322
L 1797 378
z
" transform="scale(0.015625)"/>
      <path id="DejaVuSerif-Bold-53" d="M 1728 1825
L 1728 1497
Q 1728 916 1876 656
Q 2025 397 2356 397
Q 2697 397 2836 672
Q 2975 947 2975 1663
Q 2975 2378 2836 2651
Q 2697 2925 2356 2925
Q 2025 2925 1876 2665
Q 1728 2406 1728 1825
z
M 622 2944
L 147 2944
L 147 3322
L 1728 3322
L 1728 2900
Q 1869 3159 2106 3286
Q 2344 3413 2694 3413
Q 3403 3413 3811 2945
Q 4219 2478 4219 1663
Q 4219 847 3811 378
Q 3403 -91 2694 -91
Q 2344 -91 2106 36
Q 1869 163 1728 422
L 1728 -953
L 2241 -953
L 2241 -1331
L 147 -1331
L 147 -953
L 622 -953
L 622 2944
z
" transform="scale(0.015625)"/>
      <path id="DejaVuSerif-Bold-56" d="M 300 97
L 300 1025
L 653 1025
Q 697 653 931 458
Q 1166 263 1569 263
Q 1906 263 2086 380
Q 2266 497 2266 716
Q 2266 916 2152 1025
Q 2038 1134 1709 1216
L 1253 1331
Q 738 1459 506 1698
Q 275 1938 275 2344
Q 275 2884 650 3148
Q 1025 3413 1806 3413
Q 2100 3413 2433 3364
Q 2766 3316 3169 3213
L 3169 2375
L 2816 2375
Q 2788 2716 2573 2887
Q 2359 3059 1959 3059
Q 1622 3059 1448 2951
Q 1275 2844 1275 2638
Q 1275 2469 1375 2372
Q 1475 2275 1734 2209
L 2188 2094
Q 2841 1928 3091 1684
Q 3341 1441 3341 1006
Q 3341 444 2939 176
Q 2538 -91 1691 -91
Q 1381 -91 1034 -44
Q 688 3 300 97
z
" transform="scale(0.015625)"/>
     </defs>
     <use xlink:href="#DejaVuSerif-Bold-33"/>
     <use xlink:href="#DejaVuSerif-Bold-58" transform="translate(75.203125 0)"/>
     <use xlink:href="#DejaVuSerif-Bold-55" transform="translate(147.90625 0)"/>
     <use xlink:href="#DejaVuSerif-Bold-48" transform="translate(200.59375 0)"/>
     <use xlink:href="#DejaVuSerif-Bold-3" transform="translate(264.21875 0)"/>
     <use xlink:href="#DejaVuSerif-Bold-48" transform="translate(299.03125 0)"/>
     <use xlink:href="#DejaVuSerif-Bold-57" transform="translate(362.65625 0)"/>
     <use xlink:href="#DejaVuSerif-Bold-4b" transform="translate(408.84375 0)"/>
     <use xlink:href="#DejaVuSerif-Bold-44" transform="translate(481.546875 0)"/>
     <use xlink:href="#DejaVuSerif-Bold-51" transform="translate(546.34375 0)"/>
     <use xlink:href="#DejaVuSerif-Bold-52" transform="translate(619.046875 0)"/>
     <use xlink:href="#DejaVuSerif-Bold-4f" transform="translate(685.75 0)"/>
     <use xlink:href="#DejaVuSerif-Bold-3" transform="translate(723.734375 0)"/>
     <use xlink:href="#DejaVuSerif-Bold-44" transform="translate(758.546875 0)"/>
     <use xlink:href="#DejaVuSerif-Bold-57" transform="translate(823.34375 0)"/>
     <use xlink:href="#DejaVuSerif-Bold-3" transform="translate(869.53125 0)"/>
     <use xlink:href="#DejaVuSerif-Bold-15" transform="translate(904.34375 0)"/>
     <use xlink:href="#DejaVuSerif-Bold-1c" transform="translate(973.921875 0)"/>
     <use xlink:href="#DejaVuSerif-Bold-1b" transform="translate(1043.5 0)"/>
     <use xlink:href="#DejaVuSerif-Bold-11" transform="translate(1113.078125 0)"/>
     <use xlink:href="#DejaVuSerif-Bold-14" transform="translate(1147.890625 0)"/>
     <use xlink:href="#DejaVuSerif-Bold-18" transform="translate(1217.46875 0)"/>
     <use xlink:href="#DejaVuSerif-Bold-3" transform="translate(1287.046875 0)"/>
     <use xlink:href="#DejaVuSerif-Bold-2e" transform="translate(1321.859375 0)"/>
     <use xlink:href="#DejaVuSerif-Bold-3" transform="translate(1408.78125 0)"/>
     <use xlink:href="#DejaVuSerif-Bold-44" transform="translate(1443.59375 0)"/>
     <use xlink:href="#DejaVuSerif-Bold-51" transform="translate(1508.390625 0)"/>
     <use xlink:href="#DejaVuSerif-Bold-47" transform="translate(1581.09375 0)"/>
     <use xlink:href="#DejaVuSerif-Bold-3" transform="translate(1651.015625 0)"/>
     <use xlink:href="#DejaVuSerif-Bold-44" transform="translate(1685.828125 0)"/>
     <use xlink:href="#DejaVuSerif-Bold-50" transform="translate(1750.625 0)"/>
     <use xlink:href="#DejaVuSerif-Bold-45" transform="translate(1856.4375 0)"/>
     <use xlink:href="#DejaVuSerif-Bold-4c" transform="translate(1926.359375 0)"/>
     <use xlink:href="#DejaVuSerif-Bold-48" transform="translate(1964.34375 0)"/>
     <use xlink:href="#DejaVuSerif-Bold-51" transform="translate(2027.96875 0)"/>
     <use xlink:href="#DejaVuSerif-Bold-57" transform="translate(2100.671875 0)"/>
     <use xlink:href="#DejaVuSerif-Bold-3" transform="translate(2146.859375 0)"/>
     <use xlink:href="#DejaVuSerif-Bold-53" transform="translate(2181.671875 0)"/>
     <use xlink:href="#DejaVuSerif-Bold-55" transform="translate(2251.59375 0)"/>
     <use xlink:href="#DejaVuSerif-Bold-48" transform="translate(2304.28125 0)"/>
     <use xlink:href="#DejaVuSerif-Bold-56" transform="translate(2367.90625 0)"/>
     <use xlink:href="#DejaVuSerif-Bold-56" transform="translate(2424.203125 0)"/>
     <use xlink:href="#DejaVuSerif-Bold-58" transform="translate(2480.5 0)"/>
     <use xlink:href="#DejaVuSerif-Bold-55" transform="translate(2553.203125 0)"/>
     <use xlink:href="#DejaVuSerif-Bold-48" transform="translate(2605.890625 0)"/>
    </g>
   </g>
  </g>
 </g>
 <defs>
  <clipPath id="p411f8c51b4">
   <rect x="49.089844" y="22.318125" width="290.16" height="210.672"/>
  </clipPath>
 </defs>
</svg>
